<svg width="522" height="511" viewBox="0 0 522 511" fill="none" xmlns="http://www.w3.org/2000/svg">
<path d="M0 300.09C0 157.748 211.711 -17.1049 346.117 1.34657C480.522 19.798 525.324 221.01 518.297 314.148C511.269 407.286 516.54 509.21 375.985 510.968C235.43 512.726 0 442.432 0 300.09Z" fill="#F8F8F8"/>
<g clip-path="url(#clip0_2224_15)">
<path d="M210 255.1L96.1 289.3V129.6L210 95.4004V255.1Z" fill="black" stroke="black" stroke-miterlimit="10" stroke-linecap="round" stroke-linejoin="round"/>
<path d="M215.8 249.3L101.8 283.5V123.8L215.8 89.7002V249.3Z" fill="white" stroke="black" stroke-miterlimit="10" stroke-linecap="round" stroke-linejoin="round"/>
<path d="M215.8 98.2002L101.8 132.3V123.8L215.8 89.7002V98.2002Z" fill="white" stroke="black" stroke-miterlimit="10" stroke-linecap="round" stroke-linejoin="round"/>
<path d="M120.7 138.2C120.7 141.6 118 145.1 114.6 146.1C111.2 147.1 108.5 145.2 108.5 141.8C108.5 138.4 111.2 134.9 114.6 133.9C118 133 120.7 134.9 120.7 138.2Z" fill="black"/>
<path d="M158.4 200.2C158.4 200.2 113.3 223.7 110.9 227.9C108.5 232.1 104.6 282.5 104.6 282.5L214.2 249.5C214.2 249.5 212.1 202.9 209.8 200.9C207.4 199 168.3 195.6 158.4 200.2Z" fill="white" stroke="black" stroke-miterlimit="10" stroke-linecap="round" stroke-linejoin="round"/>
<path d="M126.7 222.7C131 230.8 127.6 260.8 125.5 276.1L152.4 268.1L145.3 207.1C138.8 210.6 130.8 215 124.2 218.8C125.1 219.9 125.9 221.2 126.7 222.7Z" fill="white" stroke="black" stroke-miterlimit="10" stroke-linecap="round" stroke-linejoin="round"/>
<path d="M148.6 234.9L147.8 227.8L128.7 234C128.8 236.3 128.8 238.8 128.7 241.4L148.6 234.9Z" fill="black" stroke="black" stroke-miterlimit="10" stroke-linecap="round" stroke-linejoin="round"/>
<path d="M146 212.4L124.6 219.3C125.3 220.3 126 221.4 126.7 222.7C127.1 223.5 127.5 224.5 127.7 225.6L146.8 219.4L146 212.4Z" fill="black" stroke="black" stroke-miterlimit="10" stroke-linecap="round" stroke-linejoin="round"/>
<path d="M152.2 265.4L151.4 258.3L126.9 266.2C126.6 269 126.3 271.5 126 273.9L152.2 265.4Z" fill="black" stroke="black" stroke-miterlimit="10" stroke-linecap="round" stroke-linejoin="round"/>
<path d="M127.9 256L150.3 248.7L149.5 241.6L128.5 248.4C128.3 250.9 128.1 253.5 127.9 256Z" fill="black" stroke="black" stroke-miterlimit="10" stroke-linecap="round" stroke-linejoin="round"/>
<path d="M149.8 185.8C149.8 185.8 149.6 207.5 150.1 209.2C150.6 210.8 155.8 217.5 163.2 217.5C170.6 217.5 174.6 210.5 176.2 206C177.8 201.5 178.6 186 178.6 186C178.6 186 157.5 192 149.8 185.8Z" fill="#D4D6D7" stroke="black" stroke-miterlimit="10" stroke-linecap="round" stroke-linejoin="round"/>
<path d="M156.2 188.3C153.7 187.9 151.4 187.2 149.8 185.9C149.8 185.9 149.7 198.3 149.9 205.1C159.2 203.2 171.1 197.5 171.1 197.5L156.2 188.3Z" fill="black" stroke="black" stroke-miterlimit="10" stroke-linecap="round" stroke-linejoin="round"/>
<path d="M182.2 158.6C182.2 158.6 186.8 152.8 188 157.2C189.2 161.6 187.2 167.5 186 169.9C184.9 172.2 182 174.5 182 174.5L182.2 158.6Z" fill="#D4D6D7" stroke="black" stroke-miterlimit="10" stroke-linecap="round" stroke-linejoin="round"/>
<path d="M143.6 151.6C143.6 151.6 141.6 179.5 146.6 188.4C151.6 197.3 161.9 203.8 170.2 200.2C178.5 196.6 182.5 190.5 184 182.2C185.4 173.9 186.5 150.8 185.3 146.4C184.1 142 181.5 134.7 165.3 136.9C149 139 145.2 145.7 143.6 151.6Z" fill="#D4D6D7" stroke="black" stroke-miterlimit="10" stroke-linecap="round" stroke-linejoin="round"/>
<path d="M142.1 166.8C142.1 166.8 142.5 163.5 145.4 160.3C148.3 157.1 152.1 155 150.1 150.6C148.1 146.2 154.4 144.5 156.6 143.9C158.8 143.3 163.3 147.4 169.6 145.4C175.9 143.3 179.2 139.5 182.2 141.6C185.2 143.7 184.2 151.2 184.1 152.2C184 153.2 184.8 159.8 184.8 159.8C184.8 159.8 188.3 146.4 188.7 143.5C189.1 140.6 183.1 127.8 173.3 126.1C163.5 124.4 150.2 127.9 144 135.5C137.7 143.2 138.8 148.8 139.7 153.1C140.6 157.4 139.7 162.3 139.7 162.3C139.7 162.3 140.7 169.7 142.1 166.8Z" fill="black" stroke="black" stroke-miterlimit="10" stroke-linecap="round" stroke-linejoin="round"/>
<path d="M144.2 167.8C144.2 167.8 138.2 157.5 135.4 164.3C132.6 171 138.1 180.9 140.2 181.4C142.3 181.9 144.5 179.5 144.5 179.5" fill="#D4D6D7"/>
<path d="M144.2 167.8C144.2 167.8 138.2 157.5 135.4 164.3C132.6 171 138.1 180.9 140.2 181.4C142.3 181.9 144.5 179.5 144.5 179.5" stroke="black" stroke-miterlimit="10" stroke-linecap="round" stroke-linejoin="round"/>
<path d="M159.3 166C159 168.1 158.1 169.8 157.2 169.8C156.3 169.8 155.8 168 156.1 165.9C156.4 163.8 157.3 162.1 158.2 162.1C159.1 162.1 159.6 163.9 159.3 166Z" fill="black"/>
<path d="M178.4 162.9C178.1 165 177.2 166.7 176.3 166.7C175.4 166.7 174.9 164.9 175.2 162.8C175.5 160.7 176.4 159 177.3 159C178.2 159 178.7 160.8 178.4 162.9Z" fill="black"/>
<path d="M173.5 167.7C173.5 167.7 174.4 170.2 173.4 172.4C172.4 174.6 170 176.5 166.4 176.4C162.8 176.3 160.8 172.4 160.8 172.4" stroke="black" stroke-miterlimit="10" stroke-linecap="round" stroke-linejoin="round"/>
<path d="M157.7 181.5C157.7 181.5 164.3 187.1 176.6 178.2" stroke="black" stroke-miterlimit="10" stroke-linecap="round" stroke-linejoin="round"/>
<path d="M152.3 159C152.3 159 154.7 156.5 160.1 156.7" stroke="black" stroke-miterlimit="10" stroke-linecap="round" stroke-linejoin="round"/>
<path d="M172.9 154.5C172.9 154.5 176.9 150.7 181.5 154.2" stroke="black" stroke-miterlimit="10" stroke-linecap="round" stroke-linejoin="round"/>
<path d="M202.9 215.5C200.8 208 199.2 202.5 198.1 199C192.9 198.5 186.5 198.1 180.3 198C181.6 200.7 183.4 206.7 184.6 219.7C185.9 233 186 248.3 185.9 258.2L206.3 252.1C206.2 241.6 205.5 225.1 202.9 215.5Z" fill="white" stroke="black" stroke-miterlimit="10" stroke-linecap="round" stroke-linejoin="round"/>
<path d="M183 207.7L199.2 202.5C198.8 201.1 198.4 199.9 198.1 198.9C195.5 198.6 192.6 198.4 189.5 198.2L181.4 200.8C182 202.6 182.5 204.8 183 207.7Z" fill="black" stroke="black" stroke-miterlimit="10" stroke-linecap="round" stroke-linejoin="round"/>
<path d="M184.9 223.2L203.3 217.2C203.2 216.6 203 216 202.9 215.4C202.4 213.6 201.9 211.9 201.5 210.4L184.3 216C184.4 217.1 184.6 218.3 184.7 219.6C184.7 220.8 184.9 222 184.9 223.2Z" fill="black" stroke="black" stroke-miterlimit="10" stroke-linecap="round" stroke-linejoin="round"/>
<path d="M205.3 230.9C205.1 228.5 204.8 226.1 204.5 223.8L185.4 230C185.5 232.4 185.6 234.9 185.7 237.3L205.3 230.9Z" fill="black" stroke="black" stroke-miterlimit="10" stroke-linecap="round" stroke-linejoin="round"/>
<path d="M206.2 247.8C206.1 245.5 206.1 243 206 240.5L186 247C186 249.6 186 252.1 186 254.4L206.2 247.8Z" fill="black" stroke="black" stroke-miterlimit="10" stroke-linecap="round" stroke-linejoin="round"/>
<path d="M367.5 91.3999H242V251.1H367.5V91.3999Z" fill="black" stroke="black" stroke-miterlimit="10" stroke-linecap="round" stroke-linejoin="round"/>
<path d="M367.5 87.7998H242V247.5H367.5V87.7998Z" fill="white" stroke="black" stroke-miterlimit="10" stroke-linecap="round" stroke-linejoin="round"/>
<path d="M367.5 87.7998H242V96.2998H367.5V87.7998Z" fill="white" stroke="black" stroke-miterlimit="10" stroke-linecap="round" stroke-linejoin="round"/>
<path d="M254.8 114C258.169 114 260.9 111.269 260.9 107.9C260.9 104.531 258.169 101.8 254.8 101.8C251.431 101.8 248.7 104.531 248.7 107.9C248.7 111.269 251.431 114 254.8 114Z" fill="black"/>
<path d="M308.9 121.6C308.9 121.6 295 110.2 282.1 115.3C269.3 120.4 259.6 159.1 262.2 170.5C264.8 181.9 278.1 189.9 278.1 189.9C278.1 189.9 275.5 196.7 273.3 193.3C271 189.9 268.2 189.9 269.3 199.8C270.4 209.8 282.4 210.3 291.5 211.8C300.6 213.3 321.7 216.1 331.6 212.1C341.6 208.1 343.6 199 342.4 196.4C341.3 193.8 337.6 199.2 334.1 197.5C330.7 195.8 333.8 194.4 339.5 189C345.2 183.6 347.2 165.1 344.3 153.1C341.5 141.1 334.9 129.2 324.7 124.1C314.6 119.1 311.5 117.9 308.9 121.6Z" fill="black" stroke="black" stroke-miterlimit="10" stroke-linecap="round" stroke-linejoin="round"/>
<path d="M366.7 247.3L358.9 224.8L359.2 247.3H366.7Z" fill="white" stroke="black" stroke-miterlimit="10" stroke-linecap="round" stroke-linejoin="round"/>
<path d="M248 247.3L250.2 224.8L242.3 247.3H248Z" fill="white" stroke="black" stroke-miterlimit="10" stroke-linecap="round" stroke-linejoin="round"/>
<path d="M359.2 247.3L358.9 224.8L321.2 207.2L291.1 202.2L250.2 224.8L246.3 247.3H359.2Z" fill="white" stroke="black" stroke-miterlimit="10" stroke-linecap="round" stroke-linejoin="round"/>
<path d="M296.5 195.9C296.5 195.9 292.9 190.5 290.2 192.6C287.5 194.7 276.4 203.1 278.8 209.8C281.2 216.4 296.3 224.5 306.2 224.5C316.1 224.5 327 211.3 327.3 209.8C327.6 208.3 319.8 196.9 318.6 196.3C317.3 195.6 305.3 197.4 296.5 195.9Z" fill="white" stroke="black" stroke-miterlimit="10" stroke-linecap="round" stroke-linejoin="round"/>
<path d="M295 204.7C295 204.7 300.4 222.1 314.5 221.2L295 204.7Z" fill="white"/>
<path d="M295 204.7C295 204.7 300.4 222.1 314.5 221.2" stroke="black" stroke-miterlimit="10" stroke-linecap="round" stroke-linejoin="round"/>
<path d="M295 187.2V204.7C295 204.7 299.8 208.3 306.1 208.6C312.4 208.9 315.7 204.1 315.7 204.1V187.2C315.8 187.2 299.6 190.5 295 187.2Z" fill="white" stroke="black" stroke-miterlimit="10" stroke-linecap="round" stroke-linejoin="round"/>
<path d="M285.9 166.1C285.9 166.1 283.8 160.6 282.2 166.1C280.7 171.6 288.9 179.8 288.9 176.5C288.9 173.1 285.9 166.1 285.9 166.1Z" stroke="white" stroke-miterlimit="10" stroke-linecap="round" stroke-linejoin="round"/>
<path d="M324.1 166.1C324.1 166.1 326.2 160.6 327.8 166.1C329.3 171.6 321.1 179.8 321.1 176.5C321 173.1 324.1 166.1 324.1 166.1Z" stroke="white" stroke-miterlimit="10" stroke-linecap="round" stroke-linejoin="round"/>
<path d="M305.3 136.3C305.3 136.3 284.8 154.7 283.9 159.2C283 163.7 289.3 183.9 291.7 186.9C294.1 189.9 299.2 194.4 305.2 194.4C311.2 194.4 313.9 192.3 317.5 186.9C321.1 181.5 324.1 166.7 323.8 160.7C323.5 154.7 305.3 136.3 305.3 136.3Z" fill="white" stroke="black" stroke-miterlimit="10" stroke-linecap="round" stroke-linejoin="round"/>
<path d="M290.2 159.5C290.2 159.5 296.2 158.6 298.9 162.8" stroke="black" stroke-miterlimit="10" stroke-linecap="round" stroke-linejoin="round"/>
<path d="M309.8 163.4C309.8 163.4 312.5 159.5 318.2 160.1" stroke="black" stroke-miterlimit="10" stroke-linecap="round" stroke-linejoin="round"/>
<path d="M295.4 164.6C296.394 164.6 297.2 163.794 297.2 162.8C297.2 161.806 296.394 161 295.4 161C294.406 161 293.6 161.806 293.6 162.8C293.6 163.794 294.406 164.6 295.4 164.6Z" fill="black" stroke="black" stroke-miterlimit="10"/>
<path d="M313 164.6C313.994 164.6 314.8 163.794 314.8 162.8C314.8 161.806 313.994 161 313 161C312.006 161 311.2 161.806 311.2 162.8C311.2 163.794 312.006 164.6 313 164.6Z" fill="black" stroke="black" stroke-miterlimit="10"/>
<path d="M299.8 175.5C299.8 175.5 301.6 177.7 303.7 177.7C305.8 177.7 308.9 175.8 309.2 174.9" stroke="black" stroke-miterlimit="10" stroke-linecap="round" stroke-linejoin="round"/>
<path d="M296.3 179C296.3 179 299.3 181.2 303.9 181.5C308.4 181.8 311.1 179.8 311.1 179.8" stroke="black" stroke-miterlimit="10" stroke-linecap="round" stroke-linejoin="round"/>
<path d="M290.5 155.4C290.5 155.4 293.7 152.9 298.5 154.6" stroke="black" stroke-miterlimit="10" stroke-linecap="round" stroke-linejoin="round"/>
<path d="M308.9 155.2C308.9 155.2 313.4 152.4 318.1 156.4" stroke="black" stroke-miterlimit="10" stroke-linecap="round" stroke-linejoin="round"/>
<path d="M401 256.5L514.9 290.6V131L401 96.8003V256.5Z" fill="black" stroke="black" stroke-miterlimit="10" stroke-linecap="round" stroke-linejoin="round"/>
<path d="M396.8 249.3L510.8 283.5V123.8L396.8 89.7002V249.3Z" fill="white" stroke="black" stroke-miterlimit="10" stroke-linecap="round" stroke-linejoin="round"/>
<path d="M396.8 98.2002L510.8 132.3V123.8L396.8 89.7002V98.2002Z" fill="white" stroke="black" stroke-miterlimit="10" stroke-linecap="round" stroke-linejoin="round"/>
<path d="M403.7 111.5C403.7 114.9 406.4 118.4 409.8 119.4C413.2 120.4 415.9 118.5 415.9 115.1C415.9 111.7 413.2 108.2 409.8 107.2C406.4 106.2 403.7 108.1 403.7 111.5Z" fill="black" stroke="white" stroke-miterlimit="10"/>
<path d="M474.5 138.6C474.5 138.6 474.3 138.1 473.9 137.4C472.3 134.2 467.4 125.7 461.4 122.6C453.9 118.7 444 117.1 445.3 119.8C446.5 122.6 448.9 124.2 448.9 124.2C448.9 124.2 433.1 122.3 427.9 125.9C422.7 129.5 420.3 132.8 423.2 132.8C426 132.8 426 132.8 426 132.8C426 132.8 412.8 147 412.3 153.6C411.8 160.3 418.3 161.9 418.3 161.9C418.3 161.9 421.2 175.8 423.6 179.7C426 183.6 427.4 181.9 427.4 181.9C427.4 181.9 435.1 190.5 442 193.8C448.9 197.1 457.3 196.8 468 196C478.6 195.2 483.4 194.6 485.8 186.5C488.3 178.5 488.8 171 488.8 171C488.8 171 491.8 176.3 491.9 171C491.9 165.7 491.1 153.5 487.8 149.4C484.5 145.2 480.2 142.2 480.2 142.2C480.2 142.2 486.4 143.3 482.3 139.7C482.2 139.7 477.6 137.2 474.5 138.6Z" fill="black" stroke="black" stroke-miterlimit="10" stroke-linecap="round" stroke-linejoin="round"/>
<path d="M410.4 206.9L399 249.6L411.4 253.5L410.4 206.9Z" fill="black" stroke="black" stroke-miterlimit="10" stroke-linecap="round" stroke-linejoin="round"/>
<path d="M489.9 218.5L503.8 281L488.6 276.5L489.9 218.5Z" fill="black" stroke="black" stroke-miterlimit="10" stroke-linecap="round" stroke-linejoin="round"/>
<path d="M445 193.3L410.4 206.9L411.4 253.5L488.6 276.5L489.9 218.5L461.9 195.7L445 193.3Z" fill="black" stroke="black" stroke-miterlimit="10" stroke-linecap="round" stroke-linejoin="round"/>
<path d="M438.4 260.8L451.6 265L464.3 197.7L461.9 195.7L445 193.3L441 194.8L438.4 260.8Z" fill="white" stroke="black" stroke-miterlimit="10" stroke-linecap="round" stroke-linejoin="round"/>
<path d="M443.1 188.6C443.1 188.6 443.7 208.3 446.1 212.5C448.5 216.7 462.4 199.7 463.4 197.2C464.4 194.7 466.8 185.3 466.8 185.3C466.8 185.3 452.2 191.4 449.3 190.6C446.5 189.7 443.1 188.6 443.1 188.6Z" fill="white" stroke="black" stroke-miterlimit="10" stroke-linecap="round" stroke-linejoin="round"/>
<path d="M466.8 185.2C466.8 185.2 461.9 187.3 457.2 188.8L451.8 194.6H464.2C465.3 190.9 466.8 185.2 466.8 185.2Z" fill="black" stroke="black" stroke-miterlimit="10" stroke-linecap="round" stroke-linejoin="round"/>
<path d="M459.7 145.5L435.8 158.8C435.8 158.8 436.7 172.4 437.2 177.7C437.7 183 443.9 196 447.9 196.6C451.9 197.2 467.4 187.1 469.3 184.4C471.1 181.6 472.2 173.6 472.2 173.6C472.2 173.6 460.1 154.7 459.7 145.5Z" fill="white" stroke="black" stroke-miterlimit="10" stroke-linecap="round" stroke-linejoin="round"/>
<path d="M448.3 167.201L447.7 171.601C447.7 171.601 444.9 171.901 445.6 173.801C446.2 175.701 449.2 178.201 452.9 174.601" stroke="black" stroke-miterlimit="10" stroke-linecap="round" stroke-linejoin="round"/>
<path d="M443.7 178.8C443.7 178.8 444.7 182.1 449.2 182.4C453.7 182.7 456.4 180.5 456.4 180.5" stroke="black" stroke-miterlimit="10" stroke-linecap="round" stroke-linejoin="round"/>
<path d="M460.2 169.9C460.1 171.5 459.5 172.7 458.9 172.7C458.3 172.6 457.9 171.3 458 169.7C458.1 168.1 458.7 166.9 459.3 166.9C459.9 167 460.3 168.3 460.2 169.9Z" fill="black" stroke="black" stroke-miterlimit="10"/>
<path d="M444.8 165.8C444.7 167.4 444.1 168.6 443.5 168.6C442.9 168.5 442.5 167.2 442.6 165.6C442.7 164 443.3 162.8 443.9 162.8C444.5 162.8 444.9 164.2 444.8 165.8Z" fill="black" stroke="black" stroke-miterlimit="10"/>
<path d="M441.2 158.9C441.2 158.9 445.3 156.7 448.3 159.7" stroke="black" stroke-miterlimit="10" stroke-linecap="round" stroke-linejoin="round"/>
<path d="M454.5 161.6C454.5 161.6 461.5 161.3 463.4 165.8" stroke="black" stroke-miterlimit="10" stroke-linecap="round" stroke-linejoin="round"/>
<path d="M290.5 227.4C290.5 227.4 288.4 227.1 288.4 229.8C288.4 232.5 289.8 235.6 292.1 236.4C294.4 237.2 293.9 233.7 293.3 232.3C292.6 230.9 290.5 227.4 290.5 227.4Z" fill="white" stroke="black" stroke-miterlimit="10"/>
<path d="M315.6 227.4C315.6 227.4 317.7 227.1 317.7 229.8C317.7 232.5 316.3 235.6 314 236.4C311.7 237.2 312.2 233.7 312.8 232.3C313.5 230.9 315.6 227.4 315.6 227.4Z" fill="white" stroke="black" stroke-miterlimit="10"/>
<path d="M282.5 338.7L284.1 420.7L282.5 422.8L283.2 427.4C283.2 427.4 280.9 424.7 278.4 425.8C275.9 426.9 279.5 433.3 283.2 435.6C286.9 437.9 288.2 439.5 290.3 437.7C292.4 435.9 292.1 429.7 292.1 429.7C292.1 429.7 293.5 425.4 293.5 423.8C293.5 422.2 293.5 419 293.5 419C293.5 419 296 417.4 296 413.3C296 409.2 303.1 343.4 303.1 343.4L281.6 335.4L282.5 338.7Z" fill="black" stroke="black" stroke-miterlimit="10" stroke-linecap="round" stroke-linejoin="round"/>
<path d="M330.2 338.7L328.6 420.7L330.2 422.8L329.5 427.4C329.5 427.4 331.8 424.7 334.3 425.8C336.8 426.9 333.2 433.3 329.5 435.6C325.8 437.9 324.5 439.5 322.4 437.7C320.3 435.9 320.6 429.7 320.6 429.7C320.6 429.7 319.2 425.4 319.2 423.8C319.2 422.2 319.2 419 319.2 419C319.2 419 316.7 417.4 316.7 413.3C316.7 409.2 309.6 343.4 309.6 343.4L331.1 335.4L330.2 338.7Z" fill="black" stroke="black" stroke-miterlimit="10" stroke-linecap="round" stroke-linejoin="round"/>
<path d="M294.2 250.1C294.2 250.1 275.5 261.3 275.2 262.7C275 264.1 282.1 308.6 282.1 308.6L279.1 336.3C279.1 336.3 286.9 348.2 305.4 347.3C323.9 346.4 333.7 337.9 333.7 337.9L328.9 305.2L332.3 261.1L312.4 250.6L294.2 250.1Z" fill="white" stroke="black" stroke-miterlimit="10" stroke-linecap="round" stroke-linejoin="round"/>
<path d="M317.4 299.5C312.4 305.6 305.5 312.9 299.3 316.7" stroke="black" stroke-miterlimit="10" stroke-linecap="round" stroke-linejoin="round"/>
<path d="M325 289.7C325 289.7 323.8 291.4 321.7 294.1" stroke="black" stroke-miterlimit="10" stroke-linecap="round" stroke-linejoin="round"/>
<path d="M309.8 313.3C309.8 313.3 297.6 325.5 290.9 328.9" stroke="black" stroke-miterlimit="10" stroke-linecap="round" stroke-linejoin="round"/>
<path d="M295.9 240.2V249.2H310.1V240.5L295.9 240.2Z" fill="white" stroke="black" stroke-miterlimit="10"/>
<path d="M303 205C303 205 296.3 205.3 291.4 210C286.5 214.7 287.6 220.2 288.8 224.6C290 229 294.4 241.1 296.3 242C298.1 242.9 307.6 243.8 310 242.3C312.4 240.8 317.2 228.7 317.5 220.5C317.7 212.3 313.2 204.2 303 205Z" fill="black" stroke="black" stroke-miterlimit="10"/>
<path d="M314.5 252.4H291.4L292.3 246.3H313.6L314.5 252.4Z" fill="white" stroke="black" stroke-miterlimit="10"/>
<path d="M253.1 270C253.1 270 251.5 266.8 250.4 263.4C249.3 260 247 258.6 246.1 257.5C245.2 256.4 243.4 255 242.7 253.8C242 252.7 240.6 254.7 241.3 256.1C242 257.5 242 257.5 242 257.5C242 257.5 239.5 256.4 239.5 255.7C239.5 255 240.9 251.1 238.8 252C236.7 252.9 236.7 258.9 237.2 260.9C237.7 263 247.7 268.2 247.7 268.2L249.8 272.3L253.1 270Z" fill="white" stroke="black" stroke-miterlimit="10" stroke-linecap="round" stroke-linejoin="round"/>
<path d="M241.9 257.4L245.3 260.8" stroke="black" stroke-miterlimit="10" stroke-linecap="round" stroke-linejoin="round"/>
<path d="M275.2 262.6L269.9 286.4L252.5 267.7L246.8 270.7C246.8 270.7 268.3 309.8 271.3 309.5C274.3 309.2 280.9 299 280.9 299L275.2 262.6Z" fill="white" stroke="black" stroke-miterlimit="10" stroke-linecap="round" stroke-linejoin="round"/>
<path d="M356.8 270C356.8 270 358.4 266.8 359.5 263.4C360.6 260 362.9 258.6 363.8 257.5C364.7 256.4 366.5 255 367.2 253.8C367.9 252.7 369.3 254.7 368.6 256.1C367.9 257.5 367.9 257.5 367.9 257.5C367.9 257.5 370.4 256.4 370.4 255.7C370.4 255 369 251.1 371.1 252C373.2 252.9 373.2 258.9 372.7 260.9C372.2 263 362.2 268.2 362.2 268.2L360.1 272.3L356.8 270Z" fill="white" stroke="black" stroke-miterlimit="10" stroke-linecap="round" stroke-linejoin="round"/>
<path d="M368 257.4L364.6 260.8" stroke="black" stroke-miterlimit="10" stroke-linecap="round" stroke-linejoin="round"/>
<path d="M332.4 261L339.9 286.4L357.3 267.7L363 270.7C363 270.7 341.5 309.8 338.5 309.5C335.5 309.3 328.9 299 328.9 299L332.4 261Z" fill="white" stroke="black" stroke-miterlimit="10" stroke-linecap="round" stroke-linejoin="round"/>
<path d="M141.4 316.3H129.4V344.4H141.4V316.3Z" fill="black"/>
<path d="M156.5 303.6H144.5V344.5H156.5V303.6Z" fill="black"/>
<path d="M171.7 309.9H159.7V344.4H171.7V309.9Z" fill="black"/>
<path d="M187.2 327.8H175.2V344.4H187.2V327.8Z" fill="black"/>
<path d="M202.6 294.7H190.6V344.4H202.6V294.7Z" fill="black"/>
<path d="M218.1 320.7H206.1V344.4H218.1V320.7Z" fill="black"/>
<path d="M125.2 305.1V344.4H221.9" stroke="black" stroke-miterlimit="10" stroke-linecap="round" stroke-linejoin="round"/>
<path d="M398.6 299.1C383 299.1 370.3 311.8 370.3 327.4C370.3 343 383 355.7 398.6 355.7C414.2 355.7 426.9 343 426.9 327.4C427 311.8 414.3 299.1 398.6 299.1ZM398.6 336.5C393.6 336.5 389.6 332.5 389.6 327.5C389.6 322.5 393.6 318.5 398.6 318.5C403.6 318.5 407.6 322.5 407.6 327.5C407.6 332.5 403.6 336.5 398.6 336.5Z" stroke="black" stroke-miterlimit="10" stroke-linecap="round" stroke-linejoin="round"/>
<path d="M418.2 307L404.1 320.3C406.2 321.9 407.6 324.5 407.6 327.4C407.6 329.2 407.1 330.9 406.1 332.3L421.5 344C424.9 339.3 426.9 333.6 426.9 327.4C427 319.4 423.6 312.2 418.2 307Z" stroke="black" stroke-miterlimit="10" stroke-linecap="round" stroke-linejoin="round"/>
<path d="M484.1 347.5C495.2 336.4 495.2 318.5 484.1 307.5C473 296.4 455.1 296.4 444.1 307.5C433 318.6 433 336.5 444.1 347.5C455.1 358.5 473.1 358.5 484.1 347.5ZM457.7 321.1C461.2 317.6 466.9 317.6 470.4 321.1C473.9 324.6 473.9 330.3 470.4 333.8C466.9 337.3 461.2 337.3 457.7 333.8C454.2 330.3 454.2 324.6 457.7 321.1Z" fill="black"/>
<path d="M464.7 355.7L465.2 336.3C462.5 336.6 459.7 335.8 457.7 333.7C456.4 332.4 455.6 330.8 455.3 329.2L436.2 331.8C437.1 337.5 439.7 343 444.1 347.4C449.8 353.2 457.3 355.9 464.7 355.7Z" fill="white"/>
<path d="M370.9 402.1L389.8 387.6L412.8 401.4L441.6 377.9L471.1 398.9L485.7 382.4" stroke="black" stroke-linecap="round" stroke-linejoin="round"/>
<path d="M488.5 386.8L490.5 377.1L481 380.2L488.5 386.8Z" fill="black"/>
<path d="M389.8 391.3C391.843 391.3 393.5 389.644 393.5 387.6C393.5 385.557 391.843 383.9 389.8 383.9C387.757 383.9 386.1 385.557 386.1 387.6C386.1 389.644 387.757 391.3 389.8 391.3Z" fill="white" stroke="black" stroke-miterlimit="10" stroke-linecap="round" stroke-linejoin="round"/>
<path d="M412.8 405C414.843 405 416.5 403.344 416.5 401.3C416.5 399.257 414.843 397.6 412.8 397.6C410.757 397.6 409.1 399.257 409.1 401.3C409.1 403.344 410.757 405 412.8 405Z" fill="white" stroke="black" stroke-miterlimit="10" stroke-linecap="round" stroke-linejoin="round"/>
<path d="M441.6 381.6C443.643 381.6 445.3 379.944 445.3 377.9C445.3 375.857 443.643 374.2 441.6 374.2C439.557 374.2 437.9 375.857 437.9 377.9C437.9 379.944 439.557 381.6 441.6 381.6Z" fill="white" stroke="black" stroke-miterlimit="10" stroke-linecap="round" stroke-linejoin="round"/>
<path d="M471.1 402C473.143 402 474.8 400.344 474.8 398.3C474.8 396.257 473.143 394.6 471.1 394.6C469.057 394.6 467.4 396.257 467.4 398.3C467.4 400.344 469.057 402 471.1 402Z" fill="white" stroke="black" stroke-miterlimit="10" stroke-linecap="round" stroke-linejoin="round"/>
<path d="M125.2 364.2V403.5H224.6" stroke="black" stroke-miterlimit="10" stroke-linecap="round" stroke-linejoin="round"/>
<path d="M208.8 403.5L172.5 368.8L155.3 396.3L142.9 376L126 403.5H208.8Z" fill="black" stroke="black" stroke-miterlimit="10"/>
<path d="M217 403.5L192.7 368.8L168.1 396.3L150.3 376L126 403.5H217Z" stroke="black" stroke-miterlimit="10" stroke-linecap="round" stroke-linejoin="round"/>
<path d="M136.8 404V407.9" stroke="black" stroke-miterlimit="10" stroke-linecap="round" stroke-linejoin="round"/>
<path d="M151.2 404V407.9" stroke="black" stroke-miterlimit="10" stroke-linecap="round" stroke-linejoin="round"/>
<path d="M165.6 404V407.9" stroke="black" stroke-miterlimit="10" stroke-linecap="round" stroke-linejoin="round"/>
<path d="M180 404V407.9" stroke="black" stroke-miterlimit="10" stroke-linecap="round" stroke-linejoin="round"/>
<path d="M194.4 404V407.9" stroke="black" stroke-miterlimit="10" stroke-linecap="round" stroke-linejoin="round"/>
<path d="M208.8 404V407.9" stroke="black" stroke-miterlimit="10" stroke-linecap="round" stroke-linejoin="round"/>
<path d="M50.6 392.3L52.1 412.1C52.1 415.1 56.5 417.5 61.9 417.5C67.3 417.5 71.7 415.1 71.7 412.1L73.2 392.3H50.6Z" fill="black"/>
<path d="M62 398.6C68.2408 398.6 73.3 395.779 73.3 392.3C73.3 388.821 68.2408 386 62 386C55.7592 386 50.7 388.821 50.7 392.3C50.7 395.779 55.7592 398.6 62 398.6Z" fill="black"/>
<path d="M24.2 315.3C26.7 316.4 32.7 316.2 32.7 316.2C32.8 316.2 31.4 312.2 31.3 312C30 309.2 25.8 304.6 22.3 305.1C19.8 305.4 18.5 307.9 19 310.2C19.7 312.6 22.1 314.4 24.2 315.3Z" fill="black"/>
<path d="M26.3 332.9C28.9 333.3 34.3 331.7 34.7 331.6C35.6 334.6 36.7 337.7 38 340.7C38.7 342.4 39.5 344.1 40.4 345.8C39.9 345.1 39.5 344.4 39.4 344.4C37.4 342.1 32.1 338.8 28.9 340.1C26.6 341.1 25.9 343.8 27.1 345.9C28.3 348 31.1 349.1 33.4 349.4C35.7 349.7 40.3 348.5 41.6 348.1C41.9 348.8 42.2 349.4 42.6 350.1C44.2 353.2 45.7 356.3 47.2 359.4C47.7 360.5 48.2 361.6 48.6 362.7C48.2 362.1 47.8 361.5 47.7 361.4C45.7 359.1 40.4 355.8 37.2 357.1C34.9 358.1 34.2 360.8 35.4 362.9C36.6 365 39.4 366.1 41.7 366.4C43.9 366.7 48.2 365.6 49.6 365.2C50 366.3 50.5 367.5 50.9 368.6C51.1 369.4 51.4 370.1 51.6 370.9C51.8 371.7 52 372.4 52.2 373.2C52.6 374.7 52.9 376.2 53.2 377.6C53.4 378.6 53.6 379.6 53.8 380.5C53.3 379.4 52.3 377.3 52.2 377.1C50.6 374.5 45.9 370.4 42.5 371.3C40.1 371.9 39 374.5 39.8 376.8C40.6 379.1 43.3 380.6 45.5 381.2C47.9 381.9 53.3 381.3 54 381.2C54.3 382.8 54.6 384.4 54.9 385.8C55.5 389.1 55.9 392 56.2 394.5H58.5C58.1 391.9 57.6 388.9 56.9 385.5C56.6 383.9 56.2 382.1 55.8 380.4C56.2 380.2 58.5 379.3 60.5 378.2C62.3 380.1 66.8 382.4 67.4 382.6C66.8 384.1 66.2 385.6 65.6 387C64.3 389.9 63.2 392.4 62.1 394.6H64.5C65.4 392.6 66.4 390.3 67.4 387.8C68 386.3 68.7 384.6 69.3 382.9C69.9 383 75.3 384.1 77.7 383.6C79.9 383.1 82.7 381.8 83.7 379.6C84.7 377.4 83.8 374.7 81.4 374C78.1 372.9 73.1 376.6 71.3 379.1C71.2 379.2 70.2 381 69.6 382.1C69.9 381.4 70.1 380.7 70.4 380C70.9 378.6 71.4 377.1 71.9 375.6C72.1 374.8 72.4 374.1 72.6 373.3C72.8 372.5 73 371.7 73.2 370.9C73.6 369 74 367.1 74.3 365.2C75.5 365.7 80 367.2 82.3 367C84.6 366.8 87.5 366 88.8 364C90.1 362 89.6 359.2 87.4 358.1C84.3 356.5 78.8 359.4 76.6 361.6C76.5 361.7 75.1 363.5 74.3 364.4C74.5 363.2 74.7 362.1 74.8 360.9C75.2 357.5 75.5 354 75.9 350.5C76 349.4 76.1 348.4 76.2 347.3C76.6 347.5 81.9 349.4 84.5 349.2C86.8 349 89.7 348.2 91 346.2C92.3 344.2 91.8 341.4 89.6 340.3C86.5 338.7 81 341.6 78.9 343.8C78.7 344 76.7 346.5 76.3 347.1C76.5 344.8 76.8 342.4 77.2 340.2C77.7 337.1 78.3 334 79.2 331.1C79.4 331.2 84.9 333.2 87.5 333.1C89.8 332.9 92.7 332.1 94 330.1C95.3 328.1 94.8 325.3 92.6 324.2C89.5 322.6 84 325.5 81.9 327.7C81.7 327.9 79.6 330.6 79.2 331.1C79.3 330.9 79.3 330.7 79.3 330.6C80.2 327.5 81.6 324.6 82.9 322C83.7 320.5 84.5 319 85.4 317.7C86.4 318.2 90.9 320.4 93.3 320.5C95.6 320.6 98.6 320.1 100.1 318.2C101.6 316.4 101.5 313.5 99.4 312.2C96.5 310.3 90.7 312.6 88.3 314.5C88.2 314.6 87 315.8 86.1 316.7C86.5 316.1 86.9 315.5 87.3 314.9C88.7 312.7 90.2 310.8 91.5 309.1C92.2 308.2 92.9 307.3 93.6 306.5C94.8 306.5 99.7 306.3 101.8 305.3C103.9 304.3 106.3 302.5 106.8 300.1C107.3 297.8 105.9 295.3 103.4 295.1C100 294.7 95.9 299.4 94.6 302.2C94.5 302.4 93.2 306.4 93.3 306.4H93.4C92.8 307.1 92.1 307.9 91.3 308.8C90 310.4 88.5 312.3 87 314.5C85.5 316.6 83.9 319 82.5 321.7C81.1 324.4 79.7 327.2 78.7 330.4V330.5C78.7 329.5 78.7 326.7 78.6 326.4C78.2 323.3 75.6 317.7 72.2 317C69.8 316.5 67.7 318.5 67.5 320.8C67.3 323.2 69.1 325.7 70.8 327.2C72.7 328.9 78.1 330.6 78.5 330.7C77.5 333.7 76.8 336.8 76.2 340.1C75.9 341.9 75.6 343.8 75.3 345.7C75.3 344.8 75.3 344 75.3 343.9C74.9 340.8 72.3 335.2 68.9 334.5C66.5 334 64.4 336 64.2 338.3C64 340.7 65.8 343.2 67.5 344.7C69.2 346.3 73.8 347.8 75 348.2C74.9 348.9 74.8 349.6 74.7 350.4C74.3 353.9 73.9 357.3 73.4 360.7C73.2 361.9 73 363.1 72.8 364.2C72.8 363.4 72.8 362.8 72.8 362.7C72.4 359.6 69.8 354 66.4 353.3C64 352.8 61.9 354.8 61.7 357.1C61.5 359.5 63.3 362 65 363.5C66.7 365 70.9 366.4 72.3 366.9C72 368.1 71.8 369.3 71.5 370.4C71.3 371.2 71.1 371.9 70.9 372.7C70.7 373.5 70.4 374.2 70.2 375C69.7 376.4 69.2 377.9 68.6 379.3C68.2 380.3 67.9 381.2 67.5 382.1C67.7 380.9 68 378.6 68 378.4C68 376.4 67.3 373 65.9 370.7C65.9 370.4 65.9 370.1 65.8 369.8C65.4 367.4 63.2 365.7 60.8 366.3C57.5 367.2 55.4 373 55.2 376.1C55.2 376.3 55.3 378.3 55.4 379.5C55.2 378.8 55.1 378.1 54.9 377.3C54.6 375.8 54.2 374.4 53.7 372.8C53.5 372 53.2 371.3 53 370.5C52.8 369.7 52.5 369 52.2 368.2C51.5 366.4 50.8 364.6 50 362.8C51.3 362.5 55.9 361.3 57.7 359.9C59.5 358.5 61.5 356.2 61.4 353.8C61.4 351.4 59.5 349.3 57 349.6C53.6 350 50.6 355.4 50 358.5C50 358.7 49.8 360.9 49.7 362.1C49.2 361 48.7 360 48.2 358.9C46.7 355.8 45 352.7 43.4 349.7C42.9 348.8 42.4 347.8 41.9 346.9C42.4 346.8 47.8 345.5 49.9 344C51.7 342.6 53.7 340.3 53.6 337.9C53.6 335.5 51.7 333.5 49.2 333.7C45.8 334.1 42.8 339.5 42.2 342.6C42.2 342.8 41.9 346 41.8 346.8C40.7 344.7 39.7 342.6 38.7 340.5C37.4 337.6 36.2 334.7 35.3 331.8C35.5 331.8 41.2 330.5 43.3 328.8C45.1 327.4 47.1 325.1 47 322.7C47 320.3 45.1 318.3 42.6 318.5C39.2 318.9 36.2 324.3 35.6 327.4C35.6 327.6 35.2 331.1 35.2 331.7C35.1 331.5 35.1 331.4 35 331.2C34.1 328.1 33.6 325 33.3 322C33.1 320.3 33 318.6 33 317C34.1 316.9 39 316.2 41.1 315C43.1 313.8 45.2 311.7 45.5 309.3C45.7 306.9 44.1 304.7 41.6 304.7C38.1 304.7 34.6 309.8 33.6 312.7C33.5 312.9 33.2 314.5 33 315.8C33 315.1 33 314.3 33 313.6C33 311 33.2 308.6 33.3 306.5C33.4 305.3 33.5 304.2 33.6 303.2C34.6 302.5 38.6 299.7 39.8 297.7C41 295.7 42 292.9 41.1 290.6C40.2 288.4 37.7 287.1 35.5 288.3C32.4 289.9 31.6 296.1 32.1 299.1C32.1 299.4 33.3 303.4 33.4 303.4C33.4 303.4 33.4 303.4 33.5 303.4C33.4 304.4 33.2 305.4 33.1 306.6C32.9 308.7 32.7 311.1 32.6 313.7C32.5 316.3 32.5 319.2 32.8 322.2C33.1 325.2 33.5 328.4 34.4 331.5V331.6C33.9 330.7 32.3 328.4 32.1 328.2C30.1 325.9 24.8 322.6 21.6 323.9C19.3 324.9 18.6 327.6 19.8 329.7C21.2 331.5 24 332.5 26.3 332.9Z" fill="black"/>
<path d="M85.5 316.7C85.6 316.7 86.6 312.7 86.6 312.4C87 309.3 86.1 303.2 82.9 301.7C80.7 300.6 78.2 301.9 77.3 304.2C76.5 306.5 77.5 309.3 78.8 311.2C80.4 313.4 85.5 316.7 85.5 316.7Z" fill="black"/>
<path d="M62 397.3C66.9153 397.3 70.9 395.061 70.9 392.3C70.9 389.538 66.9153 387.3 62 387.3C57.0847 387.3 53.1 389.538 53.1 392.3C53.1 395.061 57.0847 397.3 62 397.3Z" fill="black"/>
<path d="M513.6 72H457.6C453.1 72 449.4 75.7 449.4 80.2V105.3C449.4 109.8 453.1 113.5 457.6 113.5H506.1L504.2 121.2L513.8 113.5C518.2 113.4 521.8 109.8 521.8 105.3V80.2C521.8 75.7 518.1 72 513.6 72Z" fill="black"/>
<path d="M466.7 96.5001C468.743 96.5001 470.4 94.8436 470.4 92.8001C470.4 90.7566 468.743 89.1001 466.7 89.1001C464.657 89.1001 463 90.7566 463 92.8001C463 94.8436 464.657 96.5001 466.7 96.5001Z" fill="white"/>
<path d="M485.6 96.5001C487.643 96.5001 489.3 94.8436 489.3 92.8001C489.3 90.7566 487.643 89.1001 485.6 89.1001C483.557 89.1001 481.9 90.7566 481.9 92.8001C481.9 94.8436 483.557 96.5001 485.6 96.5001Z" fill="white"/>
<path d="M504.5 96.5001C506.543 96.5001 508.2 94.8436 508.2 92.8001C508.2 90.7566 506.543 89.1001 504.5 89.1001C502.457 89.1001 500.8 90.7566 500.8 92.8001C500.8 94.8436 502.457 96.5001 504.5 96.5001Z" fill="white"/>
<path d="M202.6 122.8H247.5C251.1 122.8 254.1 125.7 254.1 129.4V149.5C254.1 153.1 251.2 156.1 247.5 156.1H208.6L198.6 162.3L202.5 156.1C198.9 156 196.1 153.1 196.1 149.5V129.4C196 125.8 199 122.8 202.6 122.8Z" fill="white" stroke="black" stroke-miterlimit="10" stroke-linecap="round" stroke-linejoin="round"/>
<path d="M240.2 142.6C241.857 142.6 243.2 141.256 243.2 139.6C243.2 137.943 241.857 136.6 240.2 136.6C238.543 136.6 237.2 137.943 237.2 139.6C237.2 141.256 238.543 142.6 240.2 142.6Z" fill="black"/>
<path d="M225 142.6C226.657 142.6 228 141.256 228 139.6C228 137.943 226.657 136.6 225 136.6C223.343 136.6 222 137.943 222 139.6C222 141.256 223.343 142.6 225 142.6Z" fill="black"/>
<path d="M209.9 142.6C211.557 142.6 212.9 141.256 212.9 139.6C212.9 137.943 211.557 136.6 209.9 136.6C208.243 136.6 206.9 137.943 206.9 139.6C206.9 141.256 208.243 142.6 209.9 142.6Z" fill="black"/>
</g>
<defs>
<clipPath id="clip0_2224_15">
<rect width="502.8" height="367" fill="white" transform="translate(19 72)"/>
</clipPath>
</defs>
</svg>
