<svg width="58" height="55" viewBox="0 0 58 55" fill="none" xmlns="http://www.w3.org/2000/svg">
<path fill-rule="evenodd" clip-rule="evenodd" d="M53.3107 8.58156C53.0875 11.7579 51.7477 16.5502 56.7718 16.2158C56.6043 17.8318 53.0875 18.2219 53.7573 20.1722C54.9854 21.4539 56.716 21.3982 57.9441 22.6798C58.0557 25.2989 55.3204 26.9149 57.9999 30.537C55.5995 34.2705 50.8545 37.0567 53.4224 42.6292C51.5802 43.465 50.6871 41.9605 49.1799 41.9048C47.6726 43.1307 48.3425 45.1925 47.3935 46.6413C45.4955 47.923 44.6582 46.4184 42.7044 47.8673C42.0345 48.3131 42.4253 49.1489 41.7554 49.5947C42.4811 50.7649 43.3743 51.7123 43.9325 53.4397C42.7044 53.6626 43.7092 54.7214 42.4253 55C40.5273 53.6626 40.0249 48.7589 36.1731 50.8207C34.6101 51.6565 35.7265 53.4954 33.6611 54.1084C31.9306 53.5512 31.484 49.8734 29.7535 49.3161C25.2318 53.997 25.0644 48.5917 22.3849 46.5299C20.7102 45.1925 20.1519 46.4184 18.3098 45.304C17.4166 43.7437 17.3608 42.5177 17.4166 41.3475C16.9142 40.2888 15.9652 40.4002 15.1279 40.1773C13.3974 41.1246 12.895 45.0811 10.7179 43.9108C11.4436 41.5704 13.509 39.7315 14.3464 37.4468C12.7833 29.8126 7.59179 28.2523 1.17216 31.5957C1.00469 30.4255 0.22317 30.8713 -0.00012207 29.924C2.67938 27.0263 8.0942 29.3668 8.70825 26.0233C9.82471 25.4103 10.1038 27.0821 11.1645 26.6363C14.0114 22.2898 12.3367 16.2715 15.5186 12.0365C15.1837 11.3121 14.8488 10.5876 14.5138 9.86322C15.7419 9.08308 16.4676 9.47315 17.3608 9.41743C18.9797 8.63728 18.254 6.96555 18.254 5.51672C19.7054 5.12665 22.2174 5.79534 21.2126 3.34347C23.8921 3.90071 29.6977 3.90071 29.7535 0C30.7583 3.62209 35.0008 3.39919 36.0056 0.222898C38.9084 1.83891 40.6948 6.35258 45.3281 3.45491C45.5514 4.73658 43.9325 5.34954 44.1558 6.63121C45.5514 9.19453 47.8401 6.29686 49.6823 6.29686C49.4031 7.5228 47.2261 9.19453 48.7891 10.1976C49.9056 10.6991 51.8594 8.97163 53.3107 8.58156Z" fill="black"/>
</svg>
