<svg width="582" height="511" viewBox="0 0 582 511" fill="none" xmlns="http://www.w3.org/2000/svg">
<path d="M24 300.09C24 157.748 235.711 -17.1049 370.117 1.34657C504.522 19.798 549.324 221.01 542.297 314.148C535.269 407.286 540.54 509.21 399.985 510.968C259.43 512.726 24 442.432 24 300.09Z" fill="#F8F8F8"/>
<g clip-path="url(#clip0_2208_139)">
<path d="M65.2528 234.063L107.745 246.076L122.007 233.184L65.2528 234.063Z" fill="white" stroke="black" stroke-miterlimit="10" stroke-linecap="round" stroke-linejoin="round"/>
<path d="M106.378 255.354L71.5045 237.09L105.499 249.103L106.378 255.354Z" fill="white" stroke="black" stroke-miterlimit="10" stroke-linecap="round" stroke-linejoin="round"/>
<path d="M107.745 246.076L106.378 255.354L105.498 249.103L65.2528 234.062L107.745 246.076Z" fill="white" stroke="black" stroke-miterlimit="10" stroke-linecap="round" stroke-linejoin="round"/>
<path d="M105.498 249.103L95.2417 267.367L65.2528 234.062L105.498 249.103Z" fill="white" stroke="black" stroke-miterlimit="10" stroke-linecap="round" stroke-linejoin="round"/>
<path d="M112.825 255.061C112.825 255.061 131.58 262.581 156.782 251.838C181.985 241.094 208.848 226.639 233.074 227.714C257.201 228.788 275.468 238.946 279.766 255.647C284.064 272.25 268.533 285.142 264.723 276.059C261.011 266.976 269.51 245.978 289.925 248.126C310.341 250.275 331.832 271.176 316.789 306.629" stroke="black" stroke-miterlimit="10" stroke-linecap="round" stroke-linejoin="round" stroke-dasharray="3 3"/>
<path d="M145.549 387.4L128.356 441.215C127.673 443.363 129.236 445.512 131.482 445.512C132.655 445.512 133.729 444.926 134.315 443.949L163.132 397.167L145.549 387.4Z" fill="black" stroke="#263238" stroke-miterlimit="10" stroke-linecap="round" stroke-linejoin="round"/>
<path d="M257.201 387.4L274.394 441.215C275.078 443.363 273.515 445.512 271.268 445.512C270.096 445.512 269.021 444.926 268.435 443.949L239.618 397.167L257.201 387.4Z" fill="black" stroke="#263238" stroke-miterlimit="10" stroke-linecap="round" stroke-linejoin="round"/>
<path d="M275.761 355.951C270.486 355.463 262.867 359.272 257.006 359.37C249.973 359.467 243.233 358.002 237.469 353.9C226.626 346.087 218.519 334.269 210.997 323.428C191.949 296.081 169.481 239.922 169.481 239.922C169.384 239.629 169.286 239.336 169.188 239.043C164.304 233.281 161.081 232.5 153.852 235.527C145.549 238.946 136.757 245.783 136.757 245.783V245.685C118.197 262.777 106.573 287.389 106.573 314.638C106.573 366.402 148.577 408.399 200.349 408.399C235.223 408.399 265.7 389.353 281.818 361.03C281.329 357.612 278.594 356.244 275.761 355.951Z" fill="black"/>
<path d="M560.607 74.8644L518.115 86.8774L503.853 73.9854L560.607 74.8644Z" fill="white" stroke="black" stroke-miterlimit="10" stroke-linecap="round" stroke-linejoin="round"/>
<path d="M519.482 96.1554L554.356 77.8916L520.362 89.9047L519.482 96.1554Z" fill="white" stroke="black" stroke-miterlimit="10" stroke-linecap="round" stroke-linejoin="round"/>
<path d="M518.115 86.8773L519.482 96.1557L520.362 89.905L560.607 74.8643L518.115 86.8773Z" fill="white" stroke="black" stroke-miterlimit="10" stroke-linecap="round" stroke-linejoin="round"/>
<path d="M520.362 89.905L530.521 108.169L560.607 74.8643L520.362 89.905Z" fill="white" stroke="black" stroke-miterlimit="10" stroke-linecap="round" stroke-linejoin="round"/>
<path d="M512.351 92.9327C512.351 92.9327 493.596 100.453 468.394 89.7097C443.191 78.9663 416.328 64.5115 392.103 65.5859C367.975 66.6602 349.708 76.8176 345.41 93.5187C341.112 110.122 356.643 123.014 360.453 113.931C364.165 104.848 355.667 83.8496 335.251 85.9983C314.835 88.147 293.344 109.048 308.388 144.501" stroke="black" stroke-miterlimit="10" stroke-linecap="round" stroke-linejoin="round" stroke-dasharray="3 3"/>
<path d="M303.797 336.906C303.797 336.906 304.676 341.203 315.421 344.524C326.166 347.942 334.469 349.017 335.251 354.193C336.13 359.272 333.59 363.569 325.287 366.401C317.082 369.234 298.619 365.229 289.828 363.276C281.036 361.323 264.332 356.439 264.332 356.439C264.332 356.439 300.378 341.203 303.797 336.906Z" fill="black" stroke="black" stroke-miterlimit="10" stroke-linecap="round" stroke-linejoin="round"/>
<path d="M335.251 354.193C334.762 351.458 332.223 349.896 328.315 348.431C317.375 347.063 305.555 350.286 298.717 349.017C294.126 348.138 290.902 346.477 288.949 345.305C277.715 350.677 264.332 356.439 264.332 356.439C264.332 356.439 281.036 361.225 289.828 363.276C298.619 365.229 317.082 369.234 325.287 366.401C333.59 363.569 336.13 359.369 335.251 354.193Z" fill="white" stroke="black" stroke-miterlimit="10" stroke-linecap="round" stroke-linejoin="round"/>
<path d="M195.172 353.705C195.172 353.705 210.509 363.081 222.719 365.034C234.93 366.988 247.433 365.327 263.844 359.955C280.255 354.584 296.763 345.208 309.267 337.297C321.77 329.386 334.469 316.884 334.274 305.848C333.981 294.811 318.938 291.979 312.686 292.272C306.434 292.565 302.429 296.765 286.311 301.648C270.193 306.434 249.191 307.02 240.107 305.359C231.022 303.699 221.058 302.234 221.058 302.234C221.058 302.234 226.431 313.857 223.012 325.772C219.593 337.687 213.341 343.059 209.727 344.524C205.917 345.696 195.172 353.705 195.172 353.705Z" fill="white" stroke="black" stroke-miterlimit="10" stroke-linecap="round" stroke-linejoin="round"/>
<path d="M224.087 299.206V302.331C224.087 302.331 228.092 306.043 232.585 309.656C237.079 313.368 242.256 320.4 242.256 320.4C242.256 320.4 252.22 320.107 259.253 320.693C266.384 321.279 272.831 323.525 272.831 323.525L302.331 296.862L301.452 292.369L278.79 294.616L253.294 281.528L231.413 299.401L224.087 299.206Z" fill="black" stroke="black" stroke-miterlimit="10" stroke-linecap="round" stroke-linejoin="round"/>
<path d="M276.836 289.537C276.836 289.537 270.291 284.751 265.211 281.333C260.132 277.914 253.587 275.375 253.587 275.375L224.087 299.206C224.087 299.206 236.297 306.043 243.135 316.2L276.836 289.537Z" fill="white" stroke="black" stroke-miterlimit="10" stroke-linecap="round" stroke-linejoin="round"/>
<path d="M276.836 289.536L243.037 316.199C243.037 316.199 254.955 316.199 258.96 317.078C262.965 317.957 271.463 318.739 271.463 318.739L301.55 292.369C301.55 292.369 287.874 286.997 276.836 289.536Z" fill="white" stroke="black" stroke-miterlimit="10" stroke-linecap="round" stroke-linejoin="round"/>
<path d="M255.248 282.212C255.248 282.212 265.7 285.533 269.021 291.1" stroke="black" stroke-miterlimit="10" stroke-linecap="round" stroke-linejoin="round"/>
<path d="M248.312 286.899C248.312 286.899 258.764 290.22 262.086 295.787" stroke="black" stroke-miterlimit="10" stroke-linecap="round" stroke-linejoin="round"/>
<path d="M241.377 291.49C241.377 291.49 251.829 294.811 255.15 300.378" stroke="black" stroke-miterlimit="10" stroke-linecap="round" stroke-linejoin="round"/>
<path d="M234.539 296.178C234.539 296.178 244.991 299.498 248.312 305.065" stroke="black" stroke-miterlimit="10" stroke-linecap="round" stroke-linejoin="round"/>
<path d="M275.859 293.053C275.859 293.053 280.743 291.49 292.075 294.615" stroke="black" stroke-miterlimit="10" stroke-linecap="round" stroke-linejoin="round"/>
<path d="M269.412 298.424C269.412 298.424 274.101 295.983 285.432 299.108" stroke="black" stroke-miterlimit="10" stroke-linecap="round" stroke-linejoin="round"/>
<path d="M262.769 302.918C262.769 302.918 267.458 300.476 278.79 303.601" stroke="black" stroke-miterlimit="10" stroke-linecap="round" stroke-linejoin="round"/>
<path d="M256.127 307.312C256.127 307.312 260.816 304.87 272.147 307.996" stroke="black" stroke-miterlimit="10" stroke-linecap="round" stroke-linejoin="round"/>
<path d="M226.626 297.253C226.626 297.253 233.464 297.253 234.832 297.253C236.297 297.253 242.158 295.788 244.209 293.834C246.163 291.881 253.587 292.955 254.466 290.709C255.345 288.463 248.508 288.17 246.554 288.463C244.6 288.756 242.256 289.342 242.256 289.342C242.256 289.342 243.428 283.97 244.209 283.091C244.991 282.212 253.587 278.305 254.955 277.426C256.42 276.547 254.955 274.887 251.829 275.766C248.703 276.645 243.037 276.645 243.037 276.645C243.037 276.645 247.335 275.18 247.335 274.105C247.335 272.933 242.256 274.105 240.009 274.984C237.762 275.863 234.93 276.156 234.93 276.156C234.93 276.156 230.631 277.621 228.092 279.575C225.552 281.528 220.961 290.611 220.961 290.611L226.626 297.253Z" fill="white" stroke="black" stroke-miterlimit="10" stroke-linecap="round" stroke-linejoin="round"/>
<path d="M244.503 276.449C244.503 276.449 240.693 276.449 236.297 279.086" stroke="black" stroke-miterlimit="10" stroke-linecap="round" stroke-linejoin="round"/>
<path d="M218.714 152.901C218.714 152.901 218.714 153.78 218.714 160.519C218.714 167.355 220.375 178.099 223.207 180.638C226.04 183.177 230.045 184.056 227.701 187.475C225.454 190.893 222.328 191.479 222.328 191.479C222.328 191.479 218.909 203.688 218.909 209.645C218.909 215.603 223.207 219.607 215.783 220.975C208.457 222.44 201.033 216.189 201.033 216.189L196.54 224.393L180.617 215.603C180.617 215.603 185.404 208.278 183.743 200.855C182.083 193.433 171.24 181.322 170.458 175.657C169.579 169.992 165.672 158.37 178.664 150.947C191.753 143.622 195.661 142.157 202.498 142.157C209.336 142.157 218.128 148.603 218.714 152.901Z" fill="white" stroke="black" stroke-miterlimit="10" stroke-linecap="round" stroke-linejoin="round"/>
<path d="M177.589 140.106C177.589 140.106 158.052 150.85 157.466 161.398C156.88 171.848 168.505 186.889 172.803 190.893C177.101 194.898 183.841 200.855 183.841 200.855C183.841 200.855 186.381 199.683 188.627 197.144C190.874 194.605 190.874 188.94 189.213 186.401C187.553 183.861 184.134 178.489 186.381 176.731C188.627 175.071 191.46 173.899 193.512 176.438C195.465 178.978 196.051 182.396 196.051 182.396C196.051 182.396 199.177 179.857 198.884 177.903C198.591 175.95 195.465 172.825 195.465 171.067C195.465 169.406 199.763 169.602 199.959 164.816C200.252 160.03 198.298 155.44 198.298 155.44C198.298 155.44 212.755 159.933 211.583 154.854C210.411 149.775 206.504 147.529 206.504 147.529C206.504 147.529 220.082 157.784 222.426 155.147C224.673 152.608 221.547 142.353 209.629 136.688C197.712 131.023 177.589 140.106 177.589 140.106Z" fill="black" stroke="black" stroke-miterlimit="10" stroke-linecap="round" stroke-linejoin="round"/>
<path d="M213.439 180.443C214.14 180.443 214.709 178.65 214.709 176.439C214.709 174.227 214.14 172.435 213.439 172.435C212.738 172.435 212.169 174.227 212.169 176.439C212.169 178.65 212.738 180.443 213.439 180.443Z" fill="#263238" stroke="black" stroke-miterlimit="10"/>
<path d="M215.881 220.975C223.207 219.51 219.007 215.603 219.007 209.645C219.007 203.688 222.426 191.479 222.426 191.479C222.426 191.479 218.714 190.307 212.169 193.725C205.624 197.144 196.833 204.176 196.54 207.594C196.247 211.013 201.033 216.091 201.033 216.091C201.033 216.091 201.131 216.189 201.326 216.287C202.792 217.459 209.336 222.244 215.881 220.975Z" fill="black" stroke="black" stroke-miterlimit="10" stroke-linecap="round" stroke-linejoin="round"/>
<path d="M210.802 197.144C210.802 197.144 212.462 200.855 217.933 201.441" stroke="white" stroke-miterlimit="10" stroke-linecap="round" stroke-linejoin="round"/>
<path d="M208.946 170.09C208.946 170.09 210.509 165.207 215.197 167.16" stroke="black" stroke-miterlimit="10" stroke-linecap="round" stroke-linejoin="round"/>
<path d="M196.931 183.666C196.931 183.666 194.684 176.145 192.242 174.778C189.8 173.411 184.427 176.145 184.427 180.345C184.427 184.545 189.311 191.87 191.949 193.237C194.586 194.604 196.442 192.749 196.442 192.749" fill="white"/>
<path d="M196.931 183.666C196.931 183.666 194.684 176.145 192.242 174.778C189.8 173.411 184.427 176.145 184.427 180.345C184.427 184.545 189.311 191.87 191.949 193.237C194.586 194.604 196.442 192.749 196.442 192.749" stroke="black" stroke-miterlimit="10" stroke-linecap="round" stroke-linejoin="round"/>
<path d="M190.483 195.972C197.605 195.972 203.378 189.937 203.378 182.494C203.378 175.05 197.605 169.016 190.483 169.016C183.362 169.016 177.589 175.05 177.589 182.494C177.589 189.937 183.362 195.972 190.483 195.972Z" fill="black" stroke="white" stroke-miterlimit="10"/>
<path d="M198.208 183.375C198.7 178.926 195.621 174.934 191.332 174.46C187.042 173.985 183.166 177.208 182.674 181.658C182.182 186.108 185.26 190.099 189.55 190.574C193.839 191.048 197.716 187.825 198.208 183.375Z" fill="black" stroke="white" stroke-miterlimit="10" stroke-linecap="round" stroke-linejoin="round"/>
<path d="M188.627 182.689L176.417 138.738L181.008 136.98L191.753 182.103L188.627 182.689Z" fill="white" stroke="black" stroke-miterlimit="10" stroke-linecap="round" stroke-linejoin="round"/>
<path d="M178.468 216.384C178.468 216.384 163.718 229.179 159.713 250.958C155.708 272.738 165.379 320.107 176.124 335.734C186.869 351.36 195.661 355.56 198.786 356.146C201.912 356.732 220.082 350.188 226.822 345.11C233.66 340.031 237.274 331.241 237.567 322.451C237.86 313.661 233.855 307.41 229.068 299.206C224.282 291.002 206.699 257.502 203.573 246.173C200.447 234.843 203.573 236.797 195.661 225.174C187.748 213.552 178.468 216.384 178.468 216.384Z" fill="white" stroke="black" stroke-miterlimit="10" stroke-linecap="round" stroke-linejoin="round"/>
<path d="M212.755 315.908C212.755 315.908 225.845 320.205 242.842 319.033C259.839 317.861 278.887 310.829 278.887 310.829C278.887 310.829 280.352 307.411 282.599 303.699C284.846 299.988 289.437 298.328 290.512 296.863C291.684 295.398 292.758 290.612 294.224 293.444C295.689 296.277 295.103 298.523 293.637 299.695C292.172 300.867 291.977 301.941 291.977 301.941C291.977 301.941 295.982 299.402 299.596 297.644C303.308 295.984 306.141 293.151 307.802 290.514C309.462 287.975 310.341 288.268 310.341 290.807C310.341 293.347 307.802 299.304 307.802 299.304C307.802 299.304 307.216 303.602 306.629 307.508C306.043 311.415 302.331 314.833 297.252 317.178C292.172 319.424 274.296 324.503 270.877 325.675C267.458 326.847 236.297 337.004 223.501 339.25C210.704 341.497 203.085 341.497 200.252 340.422C197.419 339.25 189.995 324.307 189.995 324.307C189.995 324.307 205.917 322.745 212.755 315.908Z" fill="white" stroke="black" stroke-miterlimit="10" stroke-linecap="round" stroke-linejoin="round"/>
<path d="M173.584 249.884C173.584 249.884 176.417 276.548 178.957 297.546C181.496 318.544 183.255 327.335 183.255 327.335C183.255 327.335 192.339 327.921 200.838 324.795C209.336 321.67 217.835 314.052 217.835 314.052C217.835 314.052 204.257 264.73 199.08 249.982C194 235.234 189.409 229.57 181.496 231.23C173.584 232.89 173.877 244.317 173.877 244.317" fill="white"/>
<path d="M173.584 249.884C173.584 249.884 176.417 276.548 178.957 297.546C181.496 318.544 183.255 327.335 183.255 327.335C183.255 327.335 192.339 327.921 200.838 324.795C209.336 321.67 217.835 314.052 217.835 314.052C217.835 314.052 204.257 264.73 199.08 249.982C194 235.234 189.409 229.57 181.496 231.23C173.584 232.89 173.877 244.317 173.877 244.317" stroke="black" stroke-miterlimit="10" stroke-linecap="round" stroke-linejoin="round"/>
<path d="M179.25 209.646L201.424 221.561L205.038 236.016L176.124 216.678L179.25 209.646Z" fill="white" stroke="black" stroke-miterlimit="10" stroke-linecap="round" stroke-linejoin="round"/>
<path d="M7.1309 335.441C10.5498 336.906 18.853 336.711 18.853 336.711C18.9506 336.711 17.0947 331.241 16.8993 330.948C15.0433 327.139 9.27995 320.888 4.59113 321.474C1.17219 321.963 -0.683799 325.283 0.0976715 328.506C0.976826 331.73 4.29807 334.171 7.1309 335.441Z" fill="black"/>
<path d="M10.0614 359.467C13.578 359.956 21.002 357.807 21.5881 357.612C22.7603 361.714 24.3233 365.913 26.0816 370.015C27.0584 372.359 28.2306 374.703 29.3051 377.047C28.6213 376.071 28.0352 375.192 27.9376 375.094C25.2024 371.871 17.9738 367.378 13.578 369.234C10.4522 370.601 9.573 374.313 11.1359 377.145C12.6989 380.075 16.6062 381.54 19.7321 381.931C22.858 382.419 29.2074 380.661 30.9658 380.173C31.4542 381.052 31.8449 381.931 32.3333 382.81C34.4824 387.107 36.6314 391.307 38.5851 395.604C39.2689 397.069 39.9527 398.632 40.5388 400.097C39.9527 399.218 39.4642 398.436 39.3666 398.339C36.6314 395.116 29.4028 390.623 25.007 392.479C21.8812 393.846 21.002 397.557 22.5649 400.39C24.1279 403.32 28.0352 404.785 31.1611 405.176C34.1893 405.664 40.0503 404.101 42.004 403.515C42.5901 405.078 43.2739 406.641 43.7623 408.106C44.0554 409.18 44.4461 410.157 44.7392 411.231C45.0322 412.305 45.3253 413.38 45.6183 414.356C46.1067 416.407 46.5952 418.458 47.0836 420.412C47.3766 421.779 47.6697 423.146 47.9627 424.416C47.2789 422.951 45.9114 420.021 45.716 419.826C43.4693 416.212 37.0221 410.645 32.431 411.817C29.1098 412.696 27.6445 416.212 28.8167 419.337C29.9889 422.463 33.5055 424.514 36.5337 425.393C39.855 426.369 47.1813 425.49 48.1581 425.393C48.6465 427.541 49.0373 429.69 49.3303 431.741C50.1118 436.234 50.6979 440.238 51.1863 443.656H54.3122C53.7261 440.14 53.0423 435.941 52.1631 431.253C51.7724 429.006 51.1863 426.662 50.6979 424.221C51.284 424.025 54.4099 422.756 57.145 421.193C59.5871 423.83 65.7412 426.858 66.5226 427.248C65.6435 429.299 64.862 431.35 63.9829 433.206C62.2246 437.113 60.6616 440.629 59.1964 443.656H62.5176C63.7875 440.922 65.1551 437.796 66.5226 434.28C67.4018 432.132 68.281 429.885 69.1601 427.541C70.0393 427.737 77.3655 429.202 80.6868 428.42C83.715 427.737 87.5247 425.979 88.8922 422.951C90.2598 420.021 88.9899 416.31 85.7664 415.235C81.2729 413.77 74.435 418.849 71.8953 422.17C71.6999 422.365 70.43 424.709 69.5508 426.174C69.9416 425.197 70.2346 424.318 70.6254 423.342C71.3092 421.388 71.9929 419.435 72.6767 417.286C72.9698 416.212 73.2628 415.235 73.6536 414.161C73.9466 413.087 74.2397 412.012 74.5327 410.84C75.1188 408.301 75.6072 405.664 76.0957 403.027C77.7563 403.613 83.9104 405.762 87.0362 405.566C90.1621 405.371 94.1672 404.199 95.9255 401.366C97.6838 398.632 97.0977 394.823 94.0695 393.26C89.8691 391.111 82.3474 395.116 79.3192 398.046C79.1239 398.241 77.2679 400.585 76.1933 401.953C76.4864 400.39 76.6818 398.729 76.8771 397.167C77.4632 392.479 77.854 387.693 78.3424 383.005C78.4401 381.54 78.6354 380.075 78.8308 378.61C79.4169 378.805 86.6455 381.54 90.1621 381.247C93.288 381.052 97.293 379.88 99.0513 377.047C100.81 374.313 100.224 370.504 97.1954 368.941C92.9949 366.792 85.4733 370.797 82.4451 373.727C82.2497 373.922 79.5146 377.34 78.8308 378.317C79.1239 375.094 79.5146 371.969 80.003 368.843C80.6868 364.546 81.5659 360.346 82.7382 356.342C83.0312 356.44 90.5529 359.272 94.1672 358.979C97.293 358.784 101.298 357.612 103.056 354.779C104.815 352.045 104.229 348.236 101.2 346.673C97 344.524 89.4783 348.529 86.4501 351.459C86.2548 351.654 83.2266 355.365 82.7382 356.049C82.8358 355.854 82.8358 355.561 82.9335 355.365C84.2034 351.166 86.0594 347.161 87.9154 343.547C88.9899 341.399 90.1621 339.445 91.3343 337.59C92.7019 338.273 98.856 341.301 102.177 341.399C105.303 341.496 109.406 340.813 111.457 338.273C113.509 335.734 113.313 331.925 110.48 329.972C106.573 327.335 98.6606 330.46 95.3394 333.097C95.144 333.195 93.4834 334.855 92.3112 336.125C92.7996 335.246 93.3857 334.367 93.8741 333.585C95.8278 330.655 97.8791 328.018 99.6375 325.674C100.614 324.405 101.591 323.233 102.47 322.158C104.131 322.158 110.773 321.963 113.704 320.596C116.537 319.228 119.858 316.787 120.542 313.466C121.226 310.243 119.272 306.922 115.853 306.532C111.164 306.043 105.596 312.489 103.838 316.298C103.642 316.591 101.982 322.061 102.08 322.061H102.177C101.298 323.037 100.321 324.209 99.3444 325.381C97.4884 327.628 95.437 330.167 93.3857 333.195C91.3343 336.125 89.1853 339.348 87.2316 343.059C85.2779 346.673 83.4219 350.58 81.9567 354.877C81.9567 354.877 81.9567 354.975 81.9567 355.072C81.9567 353.705 81.9567 349.798 81.859 349.505C81.2729 345.305 77.854 337.59 73.1651 336.711C69.8439 336.125 67.0111 338.762 66.718 341.985C66.425 345.306 68.8671 348.626 71.2115 350.775C73.8489 353.119 81.2729 355.463 81.859 355.658C80.5891 359.76 79.5146 364.058 78.7331 368.453C78.2447 370.992 77.9517 373.531 77.5609 376.071C77.5609 374.899 77.5609 373.824 77.4632 373.629C76.8771 369.429 73.4582 361.714 68.7694 360.835C65.4481 360.249 62.6153 362.886 62.3222 366.109C62.0292 369.429 64.4713 372.75 66.8157 374.899C69.1601 377.047 75.4119 379.098 77.0725 379.684C76.9748 380.661 76.7794 381.638 76.6818 382.614C76.0957 387.4 75.6072 392.088 74.9234 396.678C74.7281 398.339 74.435 399.901 74.142 401.464C74.142 400.39 74.142 399.511 74.0443 399.413C73.4582 395.213 70.0393 387.498 65.3504 386.619C62.0292 386.033 59.1964 388.67 58.9033 391.893C58.6103 395.213 61.0524 398.534 63.3968 400.683C65.6435 402.734 71.4068 404.687 73.3605 405.371C72.9698 407.031 72.6767 408.594 72.286 410.157C71.9929 411.231 71.7976 412.305 71.4068 413.282C71.1138 414.356 70.723 415.333 70.43 416.407C69.7462 418.361 68.9647 420.412 68.281 422.267C67.7925 423.537 67.3041 424.807 66.718 426.076C67.0111 424.416 67.4018 421.291 67.4018 420.998C67.4995 418.165 66.425 413.673 64.4713 410.45C64.4713 410.059 64.4713 409.668 64.3736 409.18C63.8852 405.957 60.857 403.515 57.5357 404.394C52.9446 405.566 50.1118 413.673 49.8187 417.872C49.8187 418.165 50.0141 420.802 50.1118 422.56C49.9164 421.584 49.6234 420.607 49.428 419.533C48.9396 417.482 48.4511 415.528 47.865 413.38C47.572 412.305 47.2789 411.329 46.8882 410.254C46.5952 409.18 46.1067 408.106 45.8137 407.031C44.9345 404.59 43.86 402.148 42.7855 399.608C44.5438 399.218 50.7956 397.557 53.3353 395.702C55.8751 393.748 58.5126 390.623 58.5126 387.302C58.5126 384.079 55.8751 381.247 52.4562 381.54C47.7674 382.028 43.6646 389.549 42.7855 393.651C42.6878 393.944 42.4924 396.971 42.2971 398.632C41.6133 397.167 40.9295 395.702 40.2457 394.237C38.1944 390.037 35.8499 385.837 33.7009 381.54C33.0171 380.27 32.3333 379.001 31.6495 377.633C32.2356 377.536 39.7573 375.778 42.5901 373.629C45.1299 371.676 47.7674 368.55 47.7674 365.23C47.7674 362.007 45.1299 359.174 41.711 359.467C37.0221 359.956 32.9194 367.476 32.0403 371.578C31.9426 371.871 31.5519 376.266 31.5519 377.34C30.0866 374.508 28.6213 371.676 27.3515 368.746C25.4955 364.741 23.9325 360.835 22.7603 356.83C23.0534 356.733 30.8681 354.975 33.7986 352.728C36.3384 350.775 38.9758 347.65 38.9758 344.329C38.9758 341.106 36.3384 338.273 32.9194 338.566C28.2306 339.055 24.1279 346.575 23.2487 350.677C23.151 350.97 22.7603 355.658 22.7603 356.537C22.6626 356.342 22.5649 356.049 22.5649 355.854C21.2951 351.556 20.6113 347.357 20.2205 343.254C19.9275 340.91 19.8298 338.664 19.7321 336.418C21.1974 336.222 28.0352 335.343 30.8681 333.585C33.6032 331.925 36.5337 329.093 36.9245 325.772C37.2175 322.549 34.9708 319.424 31.5519 319.424C26.863 319.424 21.9788 326.456 20.6113 330.46C20.5136 330.655 20.0252 332.999 19.7321 334.66C19.7321 333.683 19.6344 332.609 19.7321 331.73C19.7321 328.116 19.9275 324.893 20.2205 321.963C20.3182 320.303 20.5136 318.838 20.709 317.47C22.0765 316.494 27.5468 312.685 29.2074 309.95C30.8681 307.215 32.2356 303.406 30.9658 300.281C29.7935 297.253 26.2769 295.593 23.2487 297.156C19.0483 299.304 17.9738 307.801 18.6576 311.903C18.7553 312.294 20.3182 317.763 20.4159 317.763C20.4159 317.763 20.5136 317.763 20.5136 317.666C20.3182 319.033 20.1229 320.4 20.0252 321.963C19.7321 324.893 19.4391 328.116 19.3414 331.73C19.2437 335.343 19.2437 339.25 19.6344 343.352C20.0252 347.454 20.6113 351.752 21.7835 356.147C21.7835 356.244 21.7835 356.244 21.7835 356.342C21.002 355.17 18.853 351.947 18.6576 351.752C15.9224 348.529 8.69385 344.036 4.29808 345.892C1.1722 347.259 0.293042 350.97 1.85598 353.803C3.02819 357.514 6.93554 358.979 10.0614 359.467Z" fill="black"/>
<path d="M91.139 337.199C91.2367 337.199 92.6042 331.73 92.7019 331.339C93.288 327.14 91.9204 318.74 87.72 316.689C84.6918 315.224 81.2729 316.982 80.1007 320.108C78.9285 323.233 80.3938 327.042 82.1521 329.777C84.1057 332.804 91.0413 337.199 91.139 337.199Z" fill="black"/>
<path d="M484.219 374.215C486.368 375.192 491.74 375.094 491.74 375.094C491.838 375.094 490.568 371.578 490.47 371.383C489.298 368.941 485.586 364.937 482.558 365.327C480.409 365.62 479.139 367.769 479.627 369.82C480.213 371.871 482.363 373.434 484.219 374.215Z" fill="black"/>
<path d="M486.075 389.646C488.321 389.939 493.108 388.572 493.498 388.474C494.28 391.111 495.257 393.846 496.429 396.483C497.113 398.046 497.797 399.511 498.48 400.976C498.09 400.292 497.699 399.804 497.601 399.706C495.843 397.655 491.154 394.725 488.419 395.897C486.368 396.776 485.781 399.12 486.856 400.976C487.93 402.831 490.373 403.808 492.326 404.101C494.378 404.394 498.48 403.32 499.555 403.027C499.848 403.613 500.141 404.199 500.434 404.785C501.802 407.519 503.169 410.254 504.439 412.989C504.927 413.965 505.318 414.942 505.709 415.821C505.318 415.235 505.025 414.747 504.927 414.747C503.169 412.696 498.48 409.766 495.745 410.938C493.694 411.817 493.108 414.161 494.182 416.016C495.257 417.872 497.699 418.849 499.653 419.142C501.606 419.435 505.318 418.458 506.686 418.067C507.077 419.044 507.467 420.021 507.76 420.998C507.956 421.681 508.249 422.267 508.444 422.951C508.639 423.635 508.835 424.318 509.03 425.002C509.323 426.272 509.714 427.639 509.909 428.909C510.105 429.788 510.3 430.667 510.495 431.448C510.105 430.471 509.128 428.616 509.03 428.518C507.565 426.272 503.462 422.658 500.532 423.342C498.383 423.928 497.504 426.174 498.187 428.127C498.969 430.178 501.215 431.448 503.169 432.034C505.318 432.718 510.007 432.132 510.593 432.034C510.886 433.401 511.179 434.769 511.375 436.136C511.863 438.968 512.254 441.605 512.547 443.754H514.5C514.11 441.508 513.719 438.773 513.133 435.843C512.84 434.378 512.547 432.913 512.156 431.35C512.547 431.253 514.5 430.374 516.259 429.397C517.822 431.057 521.827 433.011 522.315 433.304C521.729 434.671 521.241 435.941 520.752 437.113C519.678 439.652 518.603 441.898 517.724 443.754H519.873C520.655 441.996 521.534 439.945 522.413 437.796C522.999 436.429 523.487 434.964 524.073 433.499C524.66 433.597 529.348 434.573 531.497 434.085C533.451 433.597 535.893 432.522 536.772 430.569C537.652 428.616 536.87 426.272 534.819 425.588C531.986 424.611 527.59 427.932 525.93 430.081C525.832 430.178 524.953 431.741 524.464 432.718C524.66 432.132 524.953 431.546 525.148 430.862C525.636 429.592 526.027 428.323 526.516 426.955C526.711 426.272 526.906 425.588 527.102 424.904C527.297 424.221 527.492 423.537 527.688 422.756C528.079 421.095 528.372 419.435 528.665 417.775C529.739 418.165 533.647 419.533 535.698 419.435C537.749 419.337 540.289 418.556 541.461 416.798C542.633 415.04 542.243 412.598 540.289 411.621C537.554 410.254 532.767 412.793 530.814 414.747C530.716 414.844 529.446 416.407 528.86 417.286C529.055 416.309 529.153 415.235 529.348 414.161C529.739 411.133 530.032 408.105 530.325 405.078C530.423 404.101 530.521 403.222 530.618 402.245C531.009 402.343 535.6 404.101 537.945 403.906C539.996 403.808 542.536 403.027 543.708 401.269C544.88 399.511 544.489 397.069 542.536 396.092C539.801 394.725 535.014 397.264 533.06 399.218C532.963 399.315 531.204 401.562 530.716 402.148C530.911 400.097 531.204 398.046 531.497 396.092C531.888 393.358 532.474 390.623 533.256 388.084C533.451 388.181 538.238 389.939 540.582 389.842C542.633 389.744 545.173 388.963 546.345 387.205C547.518 385.447 547.127 383.005 545.173 382.028C542.438 380.661 537.652 383.2 535.698 385.154C535.503 385.349 533.647 387.693 533.353 388.084C533.353 387.888 533.451 387.791 533.451 387.595C534.33 384.861 535.405 382.321 536.675 379.977C537.359 378.61 538.14 377.34 538.824 376.168C539.703 376.559 543.61 378.512 545.759 378.61C547.811 378.708 550.35 378.219 551.718 376.559C553.086 374.899 552.89 372.457 551.132 371.285C548.592 369.625 543.513 371.578 541.364 373.336C541.266 373.434 540.191 374.508 539.41 375.289C539.801 374.703 540.094 374.215 540.484 373.727C541.754 371.773 543.024 370.113 544.196 368.648C544.88 367.769 545.466 367.085 546.052 366.402C547.127 366.402 551.425 366.206 553.281 365.327C555.137 364.448 557.188 362.885 557.677 360.737C558.067 358.686 556.895 356.537 554.649 356.342C551.62 356.049 548.006 360.151 546.932 362.593C546.834 362.788 545.759 366.304 545.759 366.304H545.857C545.271 366.988 544.685 367.671 544.001 368.453C542.829 369.918 541.461 371.578 540.191 373.434C538.824 375.289 537.456 377.438 536.186 379.782C534.916 382.126 533.744 384.665 532.767 387.4V387.498C532.767 386.619 532.767 384.079 532.767 383.884C532.377 381.149 530.13 376.168 527.199 375.68C525.05 375.289 523.194 376.95 523.097 379.098C522.901 381.247 524.464 383.396 526.027 384.763C527.688 386.326 532.474 387.791 532.865 387.888C531.986 390.525 531.4 393.26 530.911 396.092C530.618 397.753 530.423 399.315 530.13 400.976C530.13 400.194 530.13 399.511 530.13 399.413C529.739 396.678 527.492 391.697 524.562 391.209C522.413 390.818 520.557 392.479 520.459 394.627C520.264 396.776 521.827 398.925 523.39 400.292C524.953 401.659 528.958 403.027 530.032 403.32C529.935 403.906 529.837 404.589 529.837 405.175C529.446 408.203 529.153 411.231 528.665 414.258C528.469 415.333 528.372 416.309 528.176 417.384C528.176 416.7 528.176 416.114 528.176 416.016C527.785 413.282 525.539 408.301 522.608 407.812C520.459 407.422 518.603 409.082 518.506 411.231C518.31 413.379 519.873 415.528 521.436 416.895C522.901 418.165 526.613 419.435 527.883 419.923C527.688 420.998 527.395 421.974 527.199 423.049C527.004 423.732 526.906 424.416 526.613 425.1C526.418 425.783 526.223 426.467 525.93 427.053C525.441 428.323 525.05 429.592 524.562 430.764C524.269 431.643 523.878 432.425 523.585 433.206C523.78 432.132 524.073 430.081 524.073 429.983C524.073 428.225 523.487 425.295 522.217 423.244C522.217 422.951 522.218 422.756 522.12 422.463C521.827 420.412 519.873 418.849 517.724 419.435C514.794 420.216 512.938 425.393 512.84 428.03C512.84 428.225 512.938 429.885 513.035 431.057C512.84 430.374 512.742 429.788 512.547 429.104C512.254 427.834 511.863 426.565 511.57 425.1C511.375 424.416 511.179 423.732 510.984 423.049C510.788 422.365 510.495 421.681 510.3 420.998C509.714 419.435 509.03 417.872 508.346 416.212C509.519 415.919 513.524 414.942 515.087 413.672C516.65 412.403 518.408 410.449 518.408 408.301C518.408 406.25 516.747 404.394 514.5 404.589C511.472 404.882 508.835 409.766 508.346 412.403C508.346 412.598 508.151 414.551 508.053 415.626C507.663 414.649 507.174 413.77 506.686 412.793C505.318 410.059 503.853 407.324 502.485 404.687C501.997 403.906 501.606 403.027 501.215 402.245C501.606 402.148 506.393 401.073 508.249 399.608C509.812 398.339 511.57 396.385 511.57 394.237C511.57 392.186 509.909 390.33 507.663 390.525C504.634 390.818 501.997 395.702 501.509 398.339C501.509 398.534 501.215 401.366 501.215 402.05C500.239 400.194 499.359 398.436 498.48 396.581C497.308 394.041 496.331 391.502 495.55 388.963C495.745 388.963 500.727 387.791 502.583 386.326C504.146 385.056 505.904 383.103 505.904 380.954C505.904 378.903 504.244 377.047 501.997 377.243C498.969 377.536 496.331 382.419 495.843 385.056C495.843 385.251 495.55 388.279 495.55 388.865C495.55 388.67 495.452 388.572 495.354 388.377C494.573 385.642 494.085 382.907 493.792 380.27C493.596 378.805 493.498 377.34 493.498 375.875C494.475 375.778 498.773 375.192 500.629 374.117C502.388 373.043 504.244 371.285 504.537 369.136C504.732 367.085 503.267 365.034 501.118 365.034C498.09 365.034 494.964 369.527 494.085 372.066C494.085 372.164 493.694 373.727 493.498 374.801C493.498 374.117 493.498 373.531 493.498 372.848C493.498 370.601 493.694 368.453 493.792 366.597C493.889 365.522 493.987 364.546 494.085 363.667C494.964 363.081 498.48 360.541 499.555 358.783C500.629 357.025 501.509 354.584 500.727 352.533C499.946 350.579 497.699 349.505 495.745 350.482C493.01 351.849 492.326 357.318 492.815 359.955C492.815 360.151 493.889 363.764 493.889 363.667C493.889 363.667 493.889 363.667 493.987 363.667C493.889 364.546 493.792 365.425 493.596 366.402C493.401 368.257 493.205 370.406 493.205 372.652C493.108 374.996 493.108 377.438 493.401 380.075C493.596 382.712 493.987 385.447 494.768 388.279V388.377C494.28 387.595 492.912 385.544 492.717 385.447C490.959 383.396 486.27 380.466 483.535 381.638C481.483 382.517 480.897 384.861 481.972 386.716C481.581 388.474 484.023 389.353 486.075 389.646Z" fill="black"/>
<path d="M538.14 375.387C538.14 375.387 539.117 371.871 539.117 371.578C539.508 368.941 538.628 363.471 535.893 362.202C533.94 361.225 531.693 362.397 531.009 364.35C530.228 366.401 531.204 368.843 532.279 370.503C533.549 372.554 538.14 375.387 538.14 375.387Z" fill="black"/>
<path d="M581.512 122.526H340.916V117.447C340.916 114.224 343.554 111.587 346.777 111.587H575.553C578.776 111.587 581.414 114.224 581.414 117.447V122.526H581.512Z" fill="black"/>
<path d="M553.867 119.987C555.432 119.987 556.7 118.719 556.7 117.155C556.7 115.59 555.432 114.322 553.867 114.322C552.303 114.322 551.034 115.59 551.034 117.155C551.034 118.719 552.303 119.987 553.867 119.987Z" fill="white" stroke="#263238" stroke-miterlimit="10" stroke-linecap="round" stroke-linejoin="round"/>
<path d="M563.342 119.987C564.907 119.987 566.175 118.719 566.175 117.155C566.175 115.59 564.907 114.322 563.342 114.322C561.778 114.322 560.51 115.59 560.51 117.155C560.51 118.719 561.778 119.987 563.342 119.987Z" fill="white" stroke="#263238" stroke-miterlimit="10" stroke-linecap="round" stroke-linejoin="round"/>
<path d="M572.818 119.987C574.382 119.987 575.651 118.719 575.651 117.155C575.651 115.59 574.382 114.322 572.818 114.322C571.253 114.322 569.985 115.59 569.985 117.155C569.985 118.719 571.253 119.987 572.818 119.987Z" fill="white" stroke="#263238" stroke-miterlimit="10" stroke-linecap="round" stroke-linejoin="round"/>
<path d="M575.651 329.678H346.777C343.554 329.678 340.916 327.041 340.916 323.818V117.447C340.916 114.224 343.554 111.587 346.777 111.587H575.553C578.776 111.587 581.414 114.224 581.414 117.447V323.818C581.512 327.041 578.874 329.678 575.651 329.678Z" stroke="black" stroke-miterlimit="10" stroke-linecap="round" stroke-linejoin="round"/>
<path d="M386.437 136.59H352.052V157.881H386.437V136.59Z" fill="white" stroke="black" stroke-miterlimit="10" stroke-linecap="round" stroke-linejoin="round"/>
<path d="M386.437 169.895H352.052V191.186H386.437V169.895Z" fill="white" stroke="black" stroke-miterlimit="10" stroke-linecap="round" stroke-linejoin="round"/>
<path d="M386.437 203.199H352.052V224.491H386.437V203.199Z" fill="white" stroke="black" stroke-miterlimit="10" stroke-linecap="round" stroke-linejoin="round"/>
<path d="M475.72 116.666C475.72 116.666 473.766 105.825 479.334 101.137C484.902 96.4488 501.802 103.09 505.611 110.025C509.519 116.959 508.639 128.288 502.583 132.195C496.527 136.102 488.419 135.223 487.051 134.148C485.684 132.976 475.72 116.666 475.72 116.666Z" fill="black" stroke="black" stroke-miterlimit="10" stroke-linecap="round" stroke-linejoin="round"/>
<path d="M440.359 142.353C440.359 142.353 432.641 142.646 428.148 135.125C423.752 127.605 436.451 115.201 454.425 113.248C472.399 111.295 482.656 115.494 486.856 125.456C491.056 135.418 489.591 149.58 480.995 153.389C472.399 157.296 469.078 156.417 467.417 153.975C465.756 151.436 460.774 138.446 460.774 138.446C460.774 138.446 455.304 142.06 449.736 143.134C444.168 144.306 440.359 142.353 440.359 142.353Z" fill="black" stroke="black" stroke-miterlimit="10" stroke-linecap="round" stroke-linejoin="round"/>
<path d="M423.752 196.362L412.909 245.196L396.498 232.988L394.349 239.336C394.349 239.336 412.714 264.241 414.082 263.948C419.65 262.971 430.883 250.275 430.883 250.275L423.752 196.362Z" fill="white" stroke="#263238" stroke-miterlimit="10" stroke-linecap="round" stroke-linejoin="round"/>
<path d="M430.883 250.372L423.85 197.339C423.85 197.144 423.557 197.144 423.557 197.339L412.909 245.196L408.318 241.777L403.141 250.958C408.123 257.404 413.495 264.143 414.179 264.046C419.65 262.971 430.883 250.372 430.883 250.372Z" fill="black" stroke="black" stroke-miterlimit="10" stroke-linecap="round" stroke-linejoin="round"/>
<path d="M492.424 329.678C492.912 285.532 475.134 255.255 475.134 255.255L469.566 250.274H430.786C411.151 276.254 408.514 315.907 408.123 329.678H492.424Z" fill="white" stroke="black" stroke-miterlimit="10" stroke-linecap="round" stroke-linejoin="round"/>
<path d="M464.975 279.673C457.062 288.365 443.191 303.504 440.945 305.652" stroke="black" stroke-miterlimit="10" stroke-linecap="round" stroke-linejoin="round"/>
<path d="M470.543 273.617C470.543 273.617 469.078 275.278 466.831 277.719" stroke="black" stroke-miterlimit="10" stroke-linecap="round" stroke-linejoin="round"/>
<path d="M440.749 311.219L438.6 313.367" stroke="black" stroke-miterlimit="10" stroke-linecap="round" stroke-linejoin="round"/>
<path d="M457.942 293.15L442.801 309.07" stroke="black" stroke-miterlimit="10" stroke-linecap="round" stroke-linejoin="round"/>
<path d="M446.708 173.703C446.708 173.703 452.276 174.582 456.086 174.289C459.993 173.996 463.803 170.969 463.803 170.969L464.096 188.158L487.051 198.12L475.134 255.451C475.134 255.451 463.217 266.292 446.61 263.753C435.377 262.092 425.901 257.404 425.901 257.404C425.901 257.404 426.487 234.355 424.534 222.439C422.58 210.524 423.655 196.46 423.655 196.46L446.903 186.791L446.61 175.754V173.703H446.708Z" fill="black" stroke="black" stroke-miterlimit="10" stroke-linecap="round" stroke-linejoin="round"/>
<path d="M468.198 189.819L464.193 188.061L463.9 170.871C463.9 170.871 459.993 173.899 456.183 174.192C452.276 174.485 446.806 173.606 446.806 173.606V175.559L447.099 186.596L441.238 189.037L438.796 205.934L466.245 207.594L468.198 189.819Z" fill="white" stroke="black" stroke-miterlimit="10" stroke-linecap="round" stroke-linejoin="round"/>
<path d="M447.001 177.219C447.001 177.219 455.304 179.466 463.9 179.856L463.803 170.871C463.803 170.871 459.895 173.899 456.086 174.192C453.839 174.387 451.104 174.192 449.15 173.899L447.001 177.219Z" fill="black" stroke="black" stroke-miterlimit="10" stroke-linecap="round" stroke-linejoin="round"/>
<path d="M468.589 127.995C468.589 127.995 463.021 131.316 455.304 135.222C447.587 139.129 438.698 139.422 438.698 139.422C438.698 139.422 435.67 153.291 434.791 158.565C433.911 163.839 440.554 176.243 445.34 177.415C455.793 179.954 462.63 175.364 464.877 174.485C467.124 173.606 471.91 162.472 473.571 159.151C475.232 155.83 472.985 153.584 472.985 153.584C472.985 153.584 466.929 134.636 468.589 127.995Z" fill="white" stroke="black" stroke-miterlimit="10" stroke-linecap="round" stroke-linejoin="round"/>
<path d="M445.006 147.1C445.197 145.656 444.788 144.411 444.093 144.319C443.398 144.227 442.679 145.323 442.488 146.767C442.297 148.21 442.706 149.455 443.401 149.547C444.096 149.639 444.815 148.544 445.006 147.1Z" fill="black" stroke="black" stroke-miterlimit="10"/>
<path d="M460.295 149.859C460.487 148.416 460.078 147.171 459.383 147.079C458.687 146.987 457.969 148.082 457.778 149.526C457.586 150.97 457.995 152.215 458.69 152.307C459.386 152.399 460.104 151.303 460.295 149.859Z" fill="black" stroke="black" stroke-miterlimit="10"/>
<path d="M450.908 146.259L449.443 154.658C449.443 154.658 446.708 154.658 445.731 155.733C444.852 156.807 447.099 158.663 449.052 159.053" stroke="black" stroke-miterlimit="10" stroke-linecap="round" stroke-linejoin="round"/>
<path d="M455.89 142.743C455.89 142.743 460.677 140.887 464.096 145.868" stroke="black" stroke-miterlimit="10" stroke-linecap="round" stroke-linejoin="round"/>
<path d="M449.345 141.376C449.345 141.376 448.271 136.297 442.117 139.227" stroke="black" stroke-miterlimit="10" stroke-linecap="round" stroke-linejoin="round"/>
<path d="M445.438 163.058C445.438 163.058 450.908 165.988 457.942 160.226" stroke="black" stroke-miterlimit="10" stroke-linecap="round" stroke-linejoin="round"/>
<path d="M469.664 156.221C469.664 156.221 474.939 150.361 477.674 153.193C480.409 155.928 478.553 161.495 475.134 162.569C471.715 163.644 468.491 162.569 468.491 162.569" fill="white"/>
<path d="M469.664 156.221C469.664 156.221 474.939 150.361 477.674 153.193C480.409 155.928 478.553 161.495 475.134 162.569C471.715 163.644 468.491 162.569 468.491 162.569" stroke="black" stroke-miterlimit="10" stroke-linecap="round" stroke-linejoin="round"/>
<path d="M487.052 198.023L500.63 233.769L522.804 204.664C522.804 204.664 521.143 198.609 522.218 195.776C523.292 193.042 525.246 190.795 526.125 189.135C527.004 187.475 526.711 183.08 528.665 184.935C530.619 186.889 529.74 190.502 529.74 190.502C529.74 190.502 536.675 182.201 538.043 181.615C539.41 181.029 540.582 182.201 540.582 182.201C540.582 182.201 543.122 179.954 543.611 181.908C544.197 183.861 541.657 188.256 541.657 188.256L544.197 186.889C544.197 186.889 545.857 186.107 545.857 187.475C545.857 188.842 539.996 194.702 539.996 194.702C539.996 194.702 543.611 191.381 544.978 192.456C546.346 193.53 538.629 199.683 537.75 201.343C536.968 203.004 536.089 204.664 534.135 205.738C532.182 206.813 529.74 207.692 529.74 207.692C529.74 207.692 512.547 245.88 509.519 252.228C506.491 258.576 502.29 260.237 500.141 259.455C497.992 258.674 480.214 232.011 480.214 232.011L487.052 198.023Z" fill="white" stroke="black" stroke-miterlimit="10" stroke-linecap="round" stroke-linejoin="round"/>
<path d="M509.226 222.439L500.629 233.671L487.051 197.925L480.116 232.011C480.116 232.011 497.797 258.576 500.043 259.455C502.29 260.334 506.393 258.576 509.421 252.228C510.789 249.298 515.282 239.531 519.678 229.862C515.087 228.397 511.375 224.881 509.226 222.439Z" fill="black" stroke="black" stroke-miterlimit="10" stroke-linecap="round" stroke-linejoin="round"/>
<path d="M529.739 190.502L528.762 193.041C528.762 193.041 530.228 196.46 530.032 198.511C529.739 200.562 528.274 202.124 528.274 202.124" stroke="#263238" stroke-miterlimit="10" stroke-linecap="round" stroke-linejoin="round"/>
<path d="M540.484 182.2L534.623 190.111" stroke="#263238" stroke-miterlimit="10" stroke-linecap="round" stroke-linejoin="round"/>
<path d="M541.657 188.354L537.847 192.358" stroke="#263238" stroke-miterlimit="10" stroke-linecap="round" stroke-linejoin="round"/>
<path d="M533.158 189.428C533.158 189.428 536.968 191.967 539.996 194.702" stroke="#263238" stroke-miterlimit="10" stroke-linecap="round" stroke-linejoin="round"/>
<path d="M396.303 225.663L409.197 255.549L433.521 247.833L425.022 218.436L396.303 225.663Z" fill="black"/>
<path d="M396.303 225.663L385.851 211.892L399.136 242.266L409.197 255.549L396.303 225.663Z" fill="black"/>
<path d="M396.303 225.663C396.303 225.663 396.987 222.831 396.792 220.291C396.596 217.752 387.707 209.06 387.707 209.06L385.851 211.892L396.303 225.663Z" fill="white" stroke="black" stroke-miterlimit="10" stroke-linecap="round" stroke-linejoin="round"/>
<path d="M396.303 225.663C396.303 225.663 396.987 221.268 400.308 219.12C403.532 216.971 423.166 214.92 423.948 214.92C424.729 214.92 425.12 218.436 425.12 218.436L396.303 225.663Z" fill="white" stroke="black" stroke-miterlimit="10" stroke-linecap="round" stroke-linejoin="round"/>
<path d="M394.447 242.95C394.447 242.95 395.619 244.806 397.475 245.978C399.331 247.15 400.797 247.15 400.015 245.88C399.234 244.61 397.28 242.462 397.28 242.462C397.28 242.462 394.447 241.583 394.447 242.95Z" fill="white" stroke="#263238" stroke-miterlimit="10" stroke-linecap="round" stroke-linejoin="round"/>
<path d="M391.321 236.797C391.321 236.797 391.907 240.801 393.177 242.071C394.447 243.341 399.234 245.196 400.015 244.22C400.797 243.243 397.768 242.462 395.815 240.215C393.959 237.969 391.321 236.797 391.321 236.797Z" fill="white" stroke="#263238" stroke-miterlimit="10" stroke-linecap="round" stroke-linejoin="round"/>
<path d="M390.149 232.304C390.149 232.304 389.856 235.527 391.517 237.48C393.177 239.531 397.573 242.168 399.234 241.484C400.894 240.898 397.964 239.14 396.987 237.968C395.815 236.894 390.149 232.304 390.149 232.304Z" fill="white" stroke="#263238" stroke-miterlimit="10" stroke-linecap="round" stroke-linejoin="round"/>
<path d="M391.614 225.76C391.614 225.76 389.368 230.155 390.149 232.401C390.931 234.647 397.085 238.652 398.257 238.652C399.331 238.652 400.504 237.382 398.648 235.526C396.792 233.671 394.056 230.741 394.056 230.741L391.614 225.76Z" fill="white" stroke="#263238" stroke-miterlimit="10" stroke-linecap="round" stroke-linejoin="round"/>
<path d="M294.517 89.6123H237.86V149.482H294.517V89.6123Z" stroke="black" stroke-miterlimit="10" stroke-linecap="round" stroke-linejoin="round"/>
<path d="M294.517 89.6123H237.86V99.965H294.517V89.6123Z" stroke="black" stroke-miterlimit="10" stroke-linecap="round" stroke-linejoin="round"/>
<path d="M266.677 141.083C276.603 141.083 284.651 133.037 284.651 123.112C284.651 113.187 276.603 105.142 266.677 105.142C256.75 105.142 248.703 113.187 248.703 123.112C248.703 133.037 256.75 141.083 266.677 141.083Z" fill="black"/>
<path d="M277.031 123.503L261.402 114.42V132.488L277.031 123.503Z" fill="white"/>
<path d="M546.638 311.22C543.806 311.22 541.559 308.973 541.559 306.141V291.295C541.559 288.463 543.806 286.217 546.638 286.217C549.471 286.217 551.718 288.463 551.718 291.295V306.141C551.816 308.876 549.471 311.22 546.638 311.22Z" fill="white" stroke="black" stroke-miterlimit="10" stroke-linecap="round" stroke-linejoin="round"/>
<path d="M555.625 306.532V302.43C555.625 301.844 555.235 301.453 554.649 301.453C554.062 301.453 553.672 301.844 553.672 302.43V306.532C553.672 310.439 550.546 313.564 546.638 313.564C542.731 313.564 539.605 310.439 539.605 306.532V302.137C539.605 301.551 539.215 301.16 538.628 301.16C538.042 301.16 537.652 301.551 537.652 302.137V306.532C537.652 311.122 541.168 314.931 545.662 315.42V319.522H540.68C540.094 319.522 539.703 319.912 539.703 320.498C539.703 321.084 540.094 321.475 540.68 321.475H552.988C553.574 321.475 553.965 321.084 553.965 320.498C553.965 319.912 553.574 319.522 552.988 319.522H547.615V315.42C552.109 314.931 555.625 311.122 555.625 306.532Z" fill="black" stroke="black" stroke-miterlimit="10"/>
<path d="M413.691 348.723H449.052" stroke="black" stroke-miterlimit="10" stroke-linecap="round"/>
<path d="M413.691 357.904H449.052" stroke="black" stroke-miterlimit="10" stroke-linecap="round"/>
<path d="M413.691 367.084H449.052" stroke="black" stroke-miterlimit="10" stroke-linecap="round"/>
<path d="M413.691 376.265H449.052" stroke="black" stroke-miterlimit="10" stroke-linecap="round"/>
<path d="M278.887 179.271H314.249" stroke="black" stroke-miterlimit="10" stroke-linecap="round"/>
<path d="M278.887 188.451H314.249" stroke="black" stroke-miterlimit="10" stroke-linecap="round"/>
<path d="M278.887 197.632H314.249" stroke="black" stroke-miterlimit="10" stroke-linecap="round"/>
<path d="M278.887 206.812H314.249" stroke="black" stroke-miterlimit="10" stroke-linecap="round"/>
<path d="M399.82 363.081H345.508V396.873H399.82V363.081Z" fill="white" stroke="black" stroke-miterlimit="10" stroke-linecap="round" stroke-linejoin="round"/>
<path d="M345.508 363.081L372.664 378.903L399.917 363.081" stroke="black" stroke-miterlimit="10" stroke-linecap="round" stroke-linejoin="round"/>
</g>
<defs>
<clipPath id="clip0_2208_139">
<rect width="582" height="381" fill="white" transform="translate(0 65)"/>
</clipPath>
</defs>
</svg>
