<svg width="108" height="96" viewBox="0 0 108 96" fill="none" xmlns="http://www.w3.org/2000/svg">
<g clip-path="url(#clip0_1_1517)">
<path d="M-71.315 85.0556C-67.3167 87.2357 -62.7487 87.1195 -58.482 86.571C-49.6978 85.4304 -52.2213 73.5264 -46.1289 71.4001C-40.7932 69.5671 -37.7662 66.9078 -36.073 61.411C-33.2347 52.0961 -24.2852 54.3195 -18.1501 58.1958C-8.64539 64.1677 1.98856 72.9158 13.3905 66.0206C22.0149 60.8043 26.3343 54.4305 28.1731 44.3847C28.9542 40.1452 29.622 35.4408 29.4499 31.1086C29.241 26.7506 26.7534 21.3673 30.0517 17.8531C36.6224 10.8614 50.68 15.3303 58.6131 10.7835C64.4355 7.47639 66.1465 3.75364 62.0785 -2.35636C56.4817 -10.753 67.4733 -16.4782 73.6365 -19.6831C79.0021 -22.4584 88.6837 -21.7841 92.3391 -27.3314" stroke="black" stroke-width="0.5" stroke-miterlimit="10"/>
<path d="M-71.9409 83.8718C-67.9959 85.9319 -63.5274 85.8007 -59.3657 85.2058C-54.5086 84.5223 -52.4732 79.3214 -51.1685 75.1201C-50.2837 72.2197 -49.2612 69.5538 -47.4436 69.0436C-41.8761 67.4287 -39.3509 64.8568 -37.3113 59.4936C-36.7414 57.9405 -36.0025 56.6164 -35.1039 55.6522C-30.528 50.7525 -24.1653 53.5229 -19.5357 56.1748C-14.4697 59.1062 -9.13226 63.412 -3.5959 65.5184C2.31819 67.7529 7.45623 67.5698 13.1613 64.7032C16.6343 62.9357 20.4249 60.2082 22.5164 57.0009C25.0634 53.0681 26.5166 48.4208 27.5608 43.6509C27.7789 42.6759 27.9234 41.6491 28.0679 40.6223C28.6144 36.5206 28.7873 32.8716 28.2975 28.7563C27.835 24.7978 25.927 20.703 28.519 17.2147C28.628 17.0988 28.7317 16.9516 28.8407 16.8356C35.9037 9.88761 49.7855 14.6456 57.84 10.2392C63.8873 6.92527 64.9656 3.2803 60.9603 -2.84062C58.0133 -7.3362 60.2738 -11.0576 63.6076 -13.9964C66.3224 -16.4074 70.0135 -18.4067 73.4292 -20.1319C78.8371 -22.85 88.2773 -22.2629 91.96 -27.6535" stroke="black" stroke-width="0.5" stroke-miterlimit="10"/>
<path d="M-72.5465 82.6201C-68.6028 84.4866 -64.3388 84.2941 -60.2931 83.5902C-55.4374 82.713 -53.6515 77.0062 -52.415 72.7845C-51.5411 69.8213 -50.539 67.2236 -48.7269 66.6821C-43.3789 65.1054 -40.7787 62.7789 -38.4596 57.7225C-37.7997 56.3152 -36.9966 55.1739 -36.0449 54.3297C-31.1976 50.0613 -25.784 51.8336 -20.9198 54.3477C-15.5934 57.1046 -10.0637 61.2154 -4.52601 63.5154C1.42628 65.9695 7.0075 66.2909 12.8803 63.4597C16.2497 61.8395 19.8835 59.1393 21.8755 55.917C24.2451 52.0797 25.9671 47.6765 26.9335 43.017C27.1203 42.0475 27.3016 41.0466 27.4406 39.9884C28.043 35.6507 27.9296 32.2131 27.2134 27.911C26.5572 23.9539 24.6329 19.765 27.3189 16.2604C27.428 16.1445 27.5316 15.9972 27.6407 15.8813C34.8455 9.00553 48.9386 14.0499 57.0149 9.76897C63.2245 6.45908 63.6129 2.93415 59.7958 -3.21951C56.9101 -7.91964 59.8306 -11.562 63.2435 -14.4176C66.0946 -16.7878 69.7285 -18.7448 73.1387 -20.5013C78.5411 -23.2507 87.6882 -22.6773 91.4977 -27.8961" stroke="black" stroke-width="0.5" stroke-miterlimit="10"/>
<path d="M-73.1833 81.3735C-69.4511 82.9536 -65.108 82.8442 -61.2845 81.7913C-56.3484 80.4478 -54.9348 74.6442 -53.6724 70.3856C-52.7985 67.4224 -51.7487 64.9134 -49.9992 64.3828C-45.2104 62.9357 -41.8929 60.646 -39.5124 56.1282C-38.8566 54.8832 -37.8585 53.934 -36.8386 53.1104C-31.994 49.1978 -27.1136 50.3198 -22.1404 52.718C-16.7103 55.3275 -11.0729 59.1288 -5.52974 61.4602C0.601185 64.0124 6.57382 64.912 12.5885 62.153C15.8228 60.6856 19.1007 57.9827 21.1609 54.7808C23.5987 50.9639 25.322 46.7544 26.3008 42.3512C26.5189 41.3762 26.6688 40.3808 26.8447 39.3486C27.5602 34.7327 27.0718 31.5542 26.0925 27.0394C25.2427 23.0836 23.3701 18.8212 26.1816 15.2947C26.2907 15.1788 26.3943 15.0315 26.5348 14.9101C33.9127 8.10117 48.1545 13.4428 56.2731 9.21913C62.5877 5.95559 62.2698 2.45662 58.7403 -3.71479C55.9528 -8.59355 59.5334 -12.1569 63.0308 -14.898C65.961 -17.1849 69.5581 -19.1679 72.9997 -20.9299C78.3393 -23.6683 87.3445 -23.1672 91.1868 -28.1978" stroke="black" stroke-width="0.5" stroke-miterlimit="10"/>
<path d="M-73.7943 80.0908C-70.1316 81.4569 -65.8949 81.1075 -62.2664 79.8623C-57.479 78.2215 -56.1812 72.3089 -54.8616 68.008C-53.9822 65.0762 -52.8738 62.7185 -51.1243 62.1879C-46.4868 60.7994 -43.1625 58.7347 -40.3592 54.7896C-39.608 53.7219 -38.5158 52.7564 -37.4277 51.9531C-32.6226 48.3706 -28.0082 48.8925 -23.0827 51.2021C-17.7631 53.734 -12.0344 57.1317 -6.55938 59.4426C-0.255272 62.0616 6.50692 63.5993 12.2338 60.858C15.28 59.4233 18.2975 56.895 20.4572 53.7081C22.8964 50.0849 24.767 45.9789 25.7308 41.6754C25.9543 40.7317 26.1356 39.7308 26.306 38.6672C27.0093 34.5382 26.5442 31.6788 25.453 27.6358C24.2868 23.3473 21.7543 18.2626 25.1071 14.3189C25.2162 14.203 25.3511 14.0502 25.4602 13.9343C32.9855 7.22896 47.3964 12.7996 55.4945 8.64417C61.8145 5.412 60.8843 1.92261 57.6535 -4.20382C55.0378 -9.20941 59.2674 -12.7564 62.8126 -15.4089C65.8165 -17.644 69.3821 -19.6215 72.8183 -21.4149C78.0952 -24.1424 86.9327 -23.6767 90.8023 -28.5505" stroke="black" stroke-width="0.5" stroke-miterlimit="10"/>
<path d="M-74.4312 78.8439C-70.8176 79.9277 -66.6928 79.307 -63.322 77.8805C-58.7146 75.9479 -57.4905 69.9835 -56.1026 65.703C-55.1756 62.8598 -54.0289 60.7216 -52.2481 60.1856C-47.7565 58.8872 -44.2467 57.1456 -41.1216 53.5646C-40.234 52.5377 -39.0941 51.6608 -37.9746 50.8522C-33.2309 47.4742 -28.8346 47.4848 -23.9569 49.7057C-18.7587 52.0971 -13.1418 55.2235 -7.71452 57.4458C-1.24814 60.0689 5.88907 62.0906 11.6746 59.5007C14.6117 58.1819 17.4779 55.7122 19.733 52.7026C22.3305 49.2457 24.1547 45.2448 25.1662 41.0298C25.3897 40.0862 25.5656 39.0539 25.7414 38.0217C27.2313 30.4277 18.2594 19.9041 24.117 13.4566C24.2261 13.3406 24.3611 13.1879 24.5015 13.0665C32.2258 6.39118 46.4145 12.3559 54.6954 8.13638C61.1668 4.84556 59.5466 1.47622 56.6771 -4.61614C54.3014 -9.72811 59.1746 -13.2902 62.7471 -15.7858C65.8246 -17.9691 69.3275 -19.9357 72.7582 -21.7604C77.967 -24.5084 86.6422 -24.0468 90.5336 -28.7951" stroke="black" stroke-width="0.5" stroke-miterlimit="10"/>
<path d="M-75.0422 77.5608C-71.4722 78.3937 -67.5383 77.4185 -64.394 75.8051C-60.0347 73.5603 -58.8202 67.7268 -57.2959 63.4872C-56.3103 60.7954 -55.0627 58.8658 -53.3078 58.3666C-48.9307 57.1527 -45.0527 55.6702 -41.7735 52.4178C-40.8122 51.4428 -39.6041 50.5864 -38.4479 49.8036C-33.7505 46.5306 -29.5029 46.2439 -24.6947 48.2508C-19.7079 50.3559 -14.2587 53.4468 -8.94736 55.56C-2.98008 57.9145 5.11173 60.9657 10.885 58.1194C13.8316 56.6697 16.7319 54.5819 18.9884 51.7659C21.6704 48.4235 23.5478 44.5426 24.5702 40.3903C24.7938 39.4467 24.9642 38.3831 25.1768 37.3767C26.9326 29.6395 16.3517 19.5251 23.1638 12.6207C23.3042 12.4994 23.4392 12.3466 23.5537 12.2621C31.4881 5.67942 44.6581 11.1752 53.8076 7.6769C61.0467 4.89874 57.7042 -0.0127088 55.6694 -5.02243C53.5759 -10.1835 59.0614 -13.7552 62.6134 -16.1826C65.7332 -18.3087 69.1993 -20.3011 72.5986 -22.1204C77.7392 -24.8889 86.2154 -24.4572 90.1709 -29.0228" stroke="black" stroke-width="0.5" stroke-miterlimit="10"/>
<path d="M-75.6423 76.3404C-71.9851 76.932 -68.3485 75.3622 -65.4291 73.7557C-61.3889 71.5341 -60.1335 65.5642 -58.3679 61.4119C-57.3181 58.9028 -55.9533 57.2759 -54.1929 56.8081C-49.8049 55.6569 -45.7783 54.4717 -42.2781 51.3747C-41.2432 50.4515 -39.9983 49.6209 -38.8475 48.8068C-34.2592 45.6497 -30.088 44.924 -25.333 46.8109C-20.5412 48.7237 -15.2652 51.7478 -10.1638 53.7683C-4.1652 56.1173 3.94299 59.2626 9.92764 56.7027C12.9643 55.3989 15.945 53.5878 18.2861 50.8864C21.0581 47.6899 22.9723 43.8349 24.0424 39.7713C24.2974 38.8222 24.4732 37.7899 24.6804 36.7522C26.3462 28.8691 14.7931 18.9239 22.3524 11.8572C22.4928 11.7358 22.6332 11.6144 22.7737 11.493C30.8976 5.07128 43.8003 10.5166 52.9826 7.2065C60.2804 4.5797 56.4128 -0.563532 54.7816 -5.48192C53.044 -10.6403 59.0164 -14.1997 62.6052 -16.6013C65.7359 -18.6646 69.1652 -20.683 72.5331 -22.4968C77.6369 -25.2912 85.9194 -24.8581 89.9022 -29.2669" stroke="black" stroke-width="0.5" stroke-miterlimit="10"/>
<path d="M-76.2682 75.1574C-72.6656 75.4353 -69.2458 73.5478 -66.4846 71.775C-62.6504 69.2984 -61.5026 63.638 -59.4275 59.5934C-58.2659 57.3557 -56.841 56.0738 -55.0438 55.6319C-50.6081 54.5693 -46.4192 53.3881 -42.7922 50.463C-41.6891 49.5602 -40.4497 48.6983 -39.2307 47.9046C-34.5728 44.9616 -30.8721 43.5746 -25.9289 45.4287C-21.3007 47.1438 -16.1925 50.1325 -11.3011 52.0603C-5.19749 54.4557 2.70068 57.5082 8.85582 55.371C11.9934 54.2759 15.0491 52.7102 17.5211 50.0183C20.3408 46.9105 22.3342 43.1386 23.4411 39.1009C23.696 38.1518 23.9346 37.1087 24.1104 36.0764C25.2649 28.4115 13.4785 18.0545 21.541 11.0941C21.6815 10.9727 21.8533 10.8459 21.9937 10.7245C30.2867 4.53184 42.9426 9.85854 52.0894 6.71616C59.3777 4.22027 55.1052 -1.20792 53.8885 -5.97226C52.5436 -11.102 58.9032 -14.6642 62.5657 -17.0139C65.7332 -19.0514 69.0684 -21.0534 72.3995 -22.8931C77.4351 -25.7079 85.524 -25.2735 89.5654 -29.5309" stroke="black" stroke-width="0.5" stroke-miterlimit="10"/>
<path d="M-76.8629 73.9678C-73.2534 73.7276 -70.2264 71.8115 -67.5348 69.8245C-63.901 67.1244 -62.8868 61.8103 -60.449 57.9935C-59.1701 56.0584 -57.6538 55.1161 -55.8252 54.6687C-51.3268 53.5952 -47.0015 52.4549 -43.2696 49.5761C-42.1297 48.6993 -40.8902 47.8374 -39.6453 47.0069C-35.1184 44.0543 -31.3468 42.3318 -26.5045 43.9774C-22.04 45.4947 -17.0626 48.4739 -12.339 50.3662C-5.84126 52.9839 1.50872 55.4856 7.76345 54.1065C10.9038 53.3986 14.1531 51.8316 16.6988 49.1915C19.5976 46.1668 21.6645 42.4468 22.7715 38.4091C23.0264 37.46 23.3277 36.4059 23.3672 35.3328C23.533 27.743 12.2103 17.079 20.7609 10.3245C20.9327 10.1977 21.0732 10.0763 21.2505 9.98087C29.7657 4.13725 41.9594 9.22127 51.128 6.20434C58.3754 3.84481 53.8969 -1.83836 52.9898 -6.49499C51.9804 -11.5539 58.8104 -15.1979 62.4838 -17.4849C65.6622 -19.4596 68.9292 -21.4821 72.2236 -23.3477C77.2223 -26.1884 85.0862 -25.7472 89.1495 -29.8792" stroke="black" stroke-width="0.5" stroke-miterlimit="10"/>
<path d="M-77.4411 72.8729C-73.9285 72.2617 -71.0651 70.1479 -68.5262 68.026C-65.1078 65.2018 -64.2437 60.14 -61.3054 56.7854C-59.9296 55.2212 -58.3233 54.4248 -56.458 54.0033C-51.9282 52.9244 -47.4515 51.7254 -43.62 48.8616C-42.4488 47.9793 -41.1834 47.0806 -39.9698 46.2555C-35.5479 43.2567 -31.7682 41.2096 -26.9586 42.667C-22.6264 43.9812 -17.754 46.9139 -13.224 48.8077C-6.78357 51.4676 0.409602 53.9966 6.72436 52.9625C9.99151 52.4264 13.2845 51.1103 15.9556 48.4484C18.9335 45.5069 21.0686 41.8073 22.2124 37.7955C22.4674 36.8464 22.6691 35.7773 22.5722 34.6633C21.9226 27.2153 10.953 16.1669 20.1814 9.77912C20.3532 9.65229 20.5305 9.55682 20.7023 9.43C29.4508 3.99817 41.0867 8.66223 50.2826 5.80212C57.4891 3.57895 52.7679 -2.3851 52.2589 -6.98176C51.6736 -12.0175 58.745 -15.5743 62.4811 -17.8722C65.6336 -19.8101 68.8638 -21.8584 72.0954 -23.7131C77.1201 -26.5907 84.5599 -26.1726 88.8182 -30.1123" stroke="black" stroke-width="0.5" stroke-miterlimit="10"/>
<path d="M-77.9826 71.8047C-74.5927 70.8595 -71.8302 68.5371 -69.4386 66.3116C-66.3816 63.4532 -65.2856 58.6097 -62.0555 55.8181C-60.5938 54.5622 -58.8975 53.9116 -57.0062 53.4533C-52.4191 52.3321 -47.8335 51.0173 -43.9706 48.148C-42.7679 47.2602 -41.5394 46.3356 -40.3054 45.4424C-36.6034 42.7626 -32.2251 39.5129 -27.4033 41.2266C-22.8911 42.8326 -18.3992 45.2499 -14.0055 47.1028C-7.62235 49.805 -0.611907 52.398 5.76287 51.709C9.12548 51.3501 12.4567 50.2535 15.2532 47.5698C18.2734 44.6856 20.6704 41.005 21.6519 36.9892C21.8754 36.0455 21.8413 34.9206 21.6503 33.8229C20.3789 26.5155 9.9302 15.1179 19.7218 9.18142C19.8991 9.08596 20.0709 8.95913 20.2481 8.86367C29.1303 3.82864 40.2398 8.06729 49.4521 5.30127C56.5754 3.15719 51.6687 -3.13002 51.6057 -7.57808C51.5181 -12.5388 58.6372 -16.007 62.5505 -18.4004C65.703 -20.3383 68.8446 -22.3389 72.008 -24.214C76.9591 -27.1434 84.2107 -26.6926 88.5331 -30.4496" stroke="black" stroke-width="0.5" stroke-miterlimit="10"/>
<path d="M-78.5498 70.7725C-75.3141 69.4987 -72.6989 67.0727 -70.355 64.7585C-67.5803 61.9493 -66.1256 57.4956 -62.7932 55.1064C-61.2415 53.9963 -59.4811 53.5285 -57.5898 53.0702C-52.9455 51.9067 -48.2821 50.4814 -44.4042 47.5126C-43.207 46.5934 -41.9526 45.632 -40.724 44.7074C-37.0807 41.8763 -32.7665 38.4438 -27.9311 39.8644C-23.5048 41.1622 -19.1015 43.6273 -14.802 45.4965C-8.50195 48.2778 -1.67422 50.935 4.72377 50.565C8.17639 50.352 11.5771 49.4695 14.4419 46.8062C17.473 43.9847 20.2831 40.2646 20.8514 36.2883C20.9809 35.3611 20.7845 34.232 20.5198 33.0825C18.7507 25.7001 8.91022 14.4552 19.3318 8.7969C19.5091 8.70144 19.7177 8.60052 19.895 8.50505C28.848 3.87773 39.483 7.61734 48.6176 4.96178C55.6631 2.92816 50.5751 -3.84448 50.9743 -8.04985C51.4267 -12.8784 58.4422 -16.1992 62.5846 -18.7617C65.6744 -20.6887 68.7846 -22.6839 71.8799 -24.5795C76.7941 -27.5348 83.8576 -27.0512 88.2331 -30.6882" stroke="black" stroke-width="0.5" stroke-miterlimit="10"/>
<path d="M-79.0695 69.8287C-75.9769 68.289 -73.4408 65.7798 -71.2074 63.3879C-68.6726 60.6851 -66.7912 56.6419 -63.4191 54.6658C-61.7774 53.7016 -60.0061 53.2965 -58.1203 52.8068C-53.4242 51.5697 -48.6939 49.9713 -44.8324 46.9083C-43.6407 45.9578 -42.3917 44.965 -41.2109 43.9518C-37.6262 40.9694 -33.4334 37.3964 -28.5271 38.4815C-24.1553 39.4657 -19.7835 41.9363 -15.578 43.8218C-9.33523 46.6454 -2.68476 49.3981 3.66824 49.3267C7.17951 49.2651 10.6607 48.6594 13.6141 45.9484C16.5729 43.2687 19.7499 39.614 19.8096 35.5C19.8081 34.5633 19.5435 33.4138 19.2216 32.3065C16.9848 24.6501 7.96928 13.8755 18.9472 8.44357C19.1559 8.34264 19.3331 8.24718 19.5418 8.14626C28.5289 3.90075 38.7207 7.13585 47.7407 4.56484C54.6663 2.58441 49.5551 -4.50731 50.3947 -8.59544C51.3762 -13.3545 58.2512 -16.554 62.5396 -19.2065C65.5721 -21.0912 68.6087 -23.1381 71.6467 -24.9915C76.5186 -28.004 83.3625 -27.4822 87.7967 -30.9679" stroke="black" stroke-width="0.5" stroke-miterlimit="10"/>
<path d="M-79.5781 68.9475C-76.6493 67.2101 -74.255 64.6286 -71.9956 62.1999C-69.5495 59.5448 -67.3817 56.0334 -64.0232 54.3504C-62.3283 53.5062 -60.557 53.1011 -58.6453 52.5747C-53.8973 51.2639 -49.1003 49.4922 -45.2661 46.2725C-44.0799 45.2906 -42.8786 44.2092 -41.7033 43.1646C-38.1881 39.9681 -34.1794 36.2657 -29.1858 37.1094C-24.795 37.8318 -20.4708 40.2137 -16.3226 42.1415C-10.1372 45.0074 -3.65303 47.9182 2.67544 48.0773C6.18263 48.178 9.8016 47.8068 12.8231 45.1162C15.7561 42.4734 19.1021 39.0478 18.6791 34.7593C18.5781 33.8075 18.2821 32.6635 17.8921 31.5358C15.2393 23.5316 7.32698 13.3407 18.7304 8.12545C18.939 8.02453 19.1476 7.92361 19.3304 7.85951C28.2521 3.98081 38.1002 6.72641 46.943 4.25085C53.78 2.31816 48.6987 -4.97266 49.9883 -9.07445C51.488 -13.8267 58.1653 -16.8625 62.5995 -19.605C65.5693 -21.4788 68.5432 -23.5149 71.513 -25.3887C76.3481 -28.4271 83.0039 -27.8726 87.5281 -31.2124" stroke="black" stroke-width="0.5" stroke-miterlimit="10"/>
<path d="M-80.0446 68.1241C-77.2739 66.2203 -74.9682 63.6866 -72.6666 61.3151C-70.2041 58.7541 -67.8971 55.6708 -64.5373 54.1815C-62.8001 53.3946 -61.0602 52.995 -59.1226 52.4317C-54.3283 51.0159 -49.4904 49.1079 -45.7516 45.7109C-44.6076 44.6718 -43.4118 43.559 -42.2528 42.4203C-38.8386 39.0152 -35.0972 35.2623 -29.9332 35.7855C-25.4551 36.2666 -21.1528 38.523 -17.0414 40.425C-10.8873 43.2963 -4.56949 46.3653 1.73991 46.7862C5.27438 47.0437 9.02564 46.8757 12.0526 44.2165C15.0851 41.5886 18.1393 38.343 17.4122 33.9782C17.2485 33.0373 16.8898 31.9042 16.4998 30.7765C13.5197 22.3769 6.88923 12.8677 18.624 7.88562C18.8326 7.7847 19.0467 7.71514 19.2553 7.61422C28.0121 4.08734 37.6161 6.35842 46.2393 3.92107C53.0136 1.99928 47.9418 -5.42243 49.7129 -9.54335C51.762 -14.2943 58.1735 -17.1869 62.6541 -20.0344C65.5666 -21.8659 68.4354 -23.9484 71.3425 -25.8112C76.1667 -28.9124 82.6084 -28.2883 87.228 -31.4508" stroke="black" stroke-width="0.5" stroke-miterlimit="10"/>
<path d="M-80.5369 67.337C-77.908 65.3609 -75.6228 62.8954 -73.3362 60.6235C-70.8573 58.1566 -68.4221 55.4387 -65.1455 54.0285C-63.4028 53.273 -61.6738 52.8106 -59.7417 52.2159C-54.8955 50.7266 -50.0222 48.6508 -46.3843 45.0452C-45.2513 43.9433 -44.1032 42.7419 -43.0178 41.5514C-39.3828 37.5586 -36.0626 34.9129 -31.02 34.5526C-26.7724 34.2659 -22.076 36.7446 -17.996 38.652C-11.9469 41.477 -5.65909 44.7451 0.631241 45.4278C4.15617 45.8162 8.02879 45.7887 11.1403 43.244C14.1374 40.7838 16.7975 37.316 15.8836 33.1775C15.6885 32.2421 15.2985 31.1145 14.877 29.9922C11.6897 21.1441 6.54013 12.3465 18.4236 7.66169C18.6377 7.59214 18.8463 7.49122 19.0604 7.42166C27.6467 4.21524 37.012 6.04317 45.4157 3.64401C52.1586 1.72768 47.0391 -5.78267 49.3747 -10.0018C52.0047 -14.7569 58.0248 -17.4845 62.5832 -20.4424C65.3961 -22.289 68.2023 -24.3605 71.0152 -26.207C75.7972 -29.3654 82.0875 -28.6827 86.7972 -31.6993" stroke="black" stroke-width="0.5" stroke-miterlimit="10"/>
<path d="M-80.9869 66.6081C-78.4944 64.5912 -76.2555 62.2306 -73.9212 60.0473C-71.3633 57.6636 -68.8994 55.2962 -65.6596 53.8601C-63.917 53.1046 -62.2357 52.5535 -60.309 51.9275C-55.4424 50.3699 -50.5281 48.1578 -47.0594 44.3232C-45.974 43.1327 -44.8055 41.8631 -43.8252 40.6262C-40.6292 36.7097 -36.8672 34.375 -32.2405 33.667C-27.8334 32.9971 -23.073 34.9154 -18.9357 36.7805C-12.9397 39.4855 -6.89333 42.6663 -0.410692 43.8972C3.0638 44.5528 7.36596 44.5798 10.2634 42.1047C13.135 39.6664 15.2456 36.1972 14.3127 32.3206C14.0917 31.422 13.6648 30.2684 13.2747 29.1407C9.98508 19.8903 6.49915 11.7403 18.369 7.34868C18.5831 7.27912 18.7917 7.17821 19.0371 7.10319C27.4162 4.19132 36.5852 5.63337 44.738 3.27786C51.444 1.33563 46.2564 -6.19517 49.1823 -10.5494C52.3674 -15.2717 57.9798 -17.9284 62.5844 -20.9914C65.3347 -22.827 68.0413 -24.9135 70.7915 -26.7491C75.568 -29.9389 81.7015 -29.2288 86.5067 -32.0682" stroke="black" stroke-width="0.5" stroke-miterlimit="10"/>
<path d="M-81.4369 65.8785C-79.044 63.8466 -76.8201 61.5856 -74.4953 59.5332C-71.9469 57.2804 -69.3507 55.1162 -66.2473 53.6392C-64.5469 52.8264 -62.8616 52.1131 -60.9662 51.4925C-56.0792 49.8667 -51.1554 47.5237 -47.819 43.4859C-46.7813 42.2068 -45.6646 41.0108 -44.7307 39.879C-41.6165 36.2352 -38.0522 34.0641 -33.6628 33.1065C-29.2107 32.1381 -24.3126 33.5477 -20.0935 35.1401C-14.043 37.4155 -7.93659 40.9414 -1.48394 42.3713C1.84466 43.117 6.53684 43.5285 9.19841 40.9974C11.6936 38.6246 13.5588 35.2305 12.664 31.5734C12.4431 30.6748 12.0216 29.5525 11.6629 28.4194C8.40188 18.7763 6.69957 11.2207 18.4044 7.18089C18.6185 7.11133 18.8585 7.00495 19.078 6.96675C27.0263 4.5499 36.217 5.37424 44.1244 3.09375C49.8432 1.42021 46.9026 -7.30935 49.0855 -10.9203C51.7701 -15.3617 57.9361 -18.1794 62.5872 -21.3473C65.2747 -23.172 67.8504 -25.268 70.5379 -27.0927C75.3348 -30.3507 81.2856 -29.5766 86.2176 -32.2441" stroke="black" stroke-width="0.5" stroke-miterlimit="10"/>
<path d="M-81.8761 65.2119C-79.5772 63.1964 -77.431 61.0458 -75.053 59.1134C-72.4514 56.9806 -69.8021 54.9364 -66.82 53.3189C-65.1415 52.3807 -63.5461 51.5215 -61.6562 50.8695C-56.7174 49.1702 -52.0145 46.6717 -48.6726 42.6652C-47.6814 41.4911 -46.6056 40.4315 -45.6811 39.4306C-42.8669 36.2914 -39.3421 33.7071 -35.1669 32.8191C-30.558 31.8233 -25.8685 32.5907 -21.5785 33.8477C-15.4108 35.6826 -8.8162 39.4143 -2.61582 40.6943C0.633685 41.3568 5.21408 42.2401 7.67248 39.8414C9.82409 37.7222 11.7574 34.3485 10.9104 30.78C10.6949 29.9128 10.3048 28.7851 9.98293 27.6779C6.96596 17.7661 7.06228 10.7054 18.429 6.95059C18.6431 6.88103 18.8885 6.80602 19.1026 6.73646C26.8272 4.52007 35.8543 5.1467 43.4998 2.84713C48.9937 1.18043 46.5958 -7.7728 48.9723 -11.3851C51.8929 -15.7707 57.8707 -18.5556 62.5053 -21.8176C65.0933 -23.6573 67.6008 -25.7738 70.1684 -27.5453C74.9544 -30.866 80.8165 -30.0441 85.8862 -32.4771" stroke="black" stroke-width="0.5" stroke-miterlimit="10"/>
<path d="M-82.3152 64.5446C-82.3152 64.5446 -80.5345 62.5222 -75.6162 58.6615C-73.0296 56.6282 -70.2439 54.6249 -67.4882 52.8207C-65.8684 51.731 -64.2962 50.5528 -62.469 49.9118C-57.6556 48.2342 -53.115 45.7317 -49.5672 41.9802C-48.5855 40.9369 -47.556 39.9823 -46.7148 39.0605C-43.9932 36.1313 -40.7508 33.5961 -36.7909 32.5841C-32.2775 31.4111 -27.7217 31.7816 -23.4181 32.7454C-17.1591 34.1767 -10.499 37.5416 -4.27682 38.9471C-1.21549 39.6423 3.43992 40.771 5.70061 38.5359C7.68042 36.5436 9.78833 33.4303 9.05174 29.9396C8.87305 29.0982 8.51434 27.9651 8.22928 26.8838C5.62955 16.7702 7.4713 10.0843 18.4112 6.66227C18.6253 6.59271 18.8707 6.5177 19.0848 6.44815C26.5858 4.43222 35.4547 4.89249 42.8698 2.5684C45.8097 1.63686 46.0018 -0.0444741 46.5594 -2.59717C47.4209 -6.55985 46.4076 -8.48381 48.8537 -11.8821C51.9474 -16.2008 57.7888 -19.0266 62.3239 -22.3036C64.8178 -24.1269 67.2517 -26.2952 69.7251 -28.0504C74.4484 -31.3602 80.3051 -30.5697 85.5126 -32.7682" stroke="black" stroke-width="0.5" stroke-miterlimit="10"/>
<path d="M-82.7489 63.9093C-82.7489 63.9093 -81.0991 61.8774 -76.174 58.2417C-73.5137 56.2602 -70.7908 54.2678 -68.1837 52.1663C-66.5966 50.8885 -65.1472 49.3762 -63.3514 48.7406C-58.7521 47.1326 -54.1037 45.0637 -50.5122 41.5631C-49.5455 40.6194 -48.5624 39.7699 -47.7416 38.9162C-45.1182 36.1656 -42.1634 33.6482 -38.4191 32.5121C-34.0584 31.2041 -29.6199 31.2719 -25.3967 31.9589C-19.1459 32.9716 -12.4846 35.787 -6.29779 37.3601C-3.35646 38.1086 1.08624 39.5005 3.44647 37.2804C6.02487 34.8284 7.2506 32.7734 7.20399 29.1626C7.19848 28.3881 6.77159 27.2345 6.54925 26.1423C4.55632 15.9877 8.01668 9.50491 18.4616 6.39517C18.6757 6.32561 18.9212 6.25059 19.1407 6.21239C26.444 4.36012 35.1711 4.74813 42.3503 2.36815C45.316 1.39979 45.3977 -0.359261 46.0234 -2.89151C46.994 -6.9701 46.2425 -8.875 48.8713 -12.3374C52.0809 -16.547 57.7806 -19.4451 62.242 -22.7739C64.6732 -24.5863 66.9339 -26.8214 69.4128 -28.5452C74.1729 -31.8291 79.9615 -31.059 85.2753 -33.0175" stroke="black" stroke-width="0.5" stroke-miterlimit="10"/>
<path d="M-83.1825 63.2742C-83.1825 63.2742 -81.6581 61.2641 -76.774 57.7648C-74.0456 55.8037 -71.3758 53.6913 -68.9856 51.2721C-67.4734 49.7489 -66.039 48.3361 -64.2377 47.7319C-59.6275 46.1866 -55.1796 44.6373 -51.4667 41.2771C-50.515 40.433 -49.5578 39.6202 -48.7942 38.8088C-46.145 36.0214 -43.4547 33.8408 -40.0786 32.4456C-36.2797 30.88 -31.6271 30.8783 -27.5103 31.3252C-21.3509 31.9984 -14.7973 34.3802 -8.68962 35.8702C-5.82193 36.5668 -1.39422 38.0582 0.893757 35.98C2.98948 34.0967 5.51198 31.8806 5.22538 28.3762C5.14623 27.5499 4.92934 26.489 4.80654 25.4118C3.57315 15.3512 8.49938 8.93652 18.4071 6.08182C18.6212 6.01226 18.8666 5.93724 19.0862 5.89904C26.1918 4.21041 34.7565 4.59435 41.7626 2.14756C44.7488 1.11102 44.7255 -0.694385 45.3825 -3.23209C46.4731 -7.36387 45.9671 -9.34378 48.7527 -12.8334C52.0359 -16.9913 57.5679 -19.9248 61.893 -23.2945C64.2246 -25.1219 66.4116 -27.4088 68.8701 -29.0644C73.6984 -32.3278 79.4187 -31.5782 84.813 -33.2599" stroke="black" stroke-width="0.5" stroke-miterlimit="10"/>
<path d="M-83.6162 62.6382C-83.6162 62.6382 -82.1859 60.6445 -77.3481 57.2501C-74.4424 55.1936 -72.104 52.8481 -69.8202 50.1889C-68.3667 48.5143 -66.8559 47.5406 -65.0437 46.9991C-60.4948 45.6584 -56.0768 44.3081 -52.3885 41.1784C-51.4572 40.4024 -50.526 39.6265 -49.8197 38.8573C-47.3108 36.1913 -44.8047 33.8812 -41.6644 32.4301C-38.1383 30.7827 -33.5443 30.6296 -29.6281 30.853C-23.6227 31.1975 -17.271 33.162 -11.2533 34.5061C-8.42788 35.1455 -4.09425 36.6533 -1.75309 34.695C0.447633 32.8581 3.28789 31.1684 3.34082 27.5726C3.36122 26.7612 3.18115 25.7263 3.16335 24.6954C2.86813 14.827 8.8566 8.38907 18.4098 5.7253C18.6239 5.65574 18.8693 5.58072 19.0575 5.54798C25.9913 3.98618 34.3843 4.49694 41.243 1.94653C44.2497 0.841808 44.09 -1.0045 44.8043 -3.58448C45.9781 -7.79535 45.8116 -9.86665 48.6654 -13.3358C51.9964 -17.4051 57.4178 -20.4163 61.5384 -23.8474C63.7705 -25.6897 65.9152 -28.0339 68.3791 -29.6581C73.2756 -32.9011 78.9591 -32.1774 84.4653 -33.5878" stroke="black" stroke-width="0.5" stroke-miterlimit="10"/>
<path d="M-84.0553 61.9721C-84.0553 61.9721 -82.7191 59.9948 -77.9754 56.6168C-75.0752 54.5289 -72.9659 51.6093 -70.7175 49.1179C-69.4194 47.6642 -67.7082 46.9141 -65.8851 46.4353C-61.403 45.2678 -57.015 44.1166 -53.3308 41.1491C-52.4254 40.41 -51.52 39.6709 -50.8397 38.9386C-48.4713 36.3939 -46.0497 33.9693 -43.1671 32.3368C-39.9355 30.4821 -35.482 30.4505 -31.6667 30.4652C-25.7841 30.4757 -19.6955 32.2275 -13.8838 33.3166C-11.012 33.8509 -6.76839 35.2129 -4.4204 33.4796C-2.0983 31.7831 1.0488 30.557 1.50398 26.8589C1.59256 26.068 1.54885 25.0739 1.62514 24.0267C2.32673 14.5019 9.21927 7.87431 18.3811 5.37555C18.5952 5.30599 18.8147 5.2678 19.0288 5.19824C26.0717 3.52052 33.9656 4.50585 40.7971 1.79863C43.8242 0.625722 43.5541 -1.2983 44.3311 -3.88919C45.599 -8.11644 45.7611 -10.3418 48.6203 -13.7797C51.9622 -17.7862 57.1846 -20.8274 61.132 -24.3253C63.285 -26.2508 65.472 -28.5377 67.9045 -30.1565C72.8378 -33.3736 78.5214 -32.6499 84.108 -33.7834" stroke="black" stroke-width="0.5" stroke-miterlimit="10"/>
<path d="M-84.4944 61.3054C-84.4944 61.3054 -83.221 59.339 -78.619 55.8887C-75.787 53.7804 -73.9682 50.4913 -71.5507 48.2289C-70.2199 46.9634 -68.4814 46.3701 -66.6473 45.9541C-62.1693 44.9488 -57.8482 43.9708 -54.1789 41.1029C-53.2995 40.4006 -52.3941 39.6614 -51.745 38.9346C-49.4707 36.4063 -47.1869 33.7471 -44.5144 32.022C-41.4928 30.0746 -37.2329 30.0443 -33.5389 29.9186C-27.9454 29.7532 -22.1105 31.1614 -16.5251 32.0637C-13.6329 32.5298 -9.53655 33.7881 -7.10946 32.138C-4.5992 30.4088 -1.26525 29.6995 -0.323255 26.0136C-0.129676 25.2691 -0.11066 24.2641 0.101991 23.2577C1.85358 14.1965 9.33517 7.24026 18.2884 4.84243C18.5025 4.77287 18.722 4.73468 18.9361 4.66512C25.8958 3.0665 33.5879 4.37774 40.3976 1.54507C43.4397 0.272616 43.0645 -1.69776 43.9043 -4.29956C45.2349 -8.53772 45.7256 -10.9172 48.6162 -14.3605C51.9377 -18.2988 56.8669 -21.3536 60.6983 -24.9606C62.835 -26.9803 64.9961 -29.2304 67.5023 -30.7973C72.4779 -33.9571 78.2132 -33.3071 83.8598 -34.0956" stroke="black" stroke-width="0.5" stroke-miterlimit="10"/>
<path d="M-84.939 60.6067C-84.939 60.6067 -83.5974 58.6607 -79.3105 55.0714C-76.657 52.8649 -75.1 49.5567 -72.388 47.5016C-70.9617 46.4133 -69.2695 45.925 -67.456 45.5772C-63.0134 44.7396 -58.665 43.9184 -55.0475 41.1242C-54.1626 40.4532 -53.2886 39.7196 -52.645 38.9613C-50.4444 36.3813 -48.2928 33.5189 -45.7212 31.5851C-42.915 29.5136 -38.7602 29.437 -35.2489 29.3754C-30.0004 29.27 -24.43 30.2719 -19.0656 31.0188C-16.1529 31.4167 -12.0102 32.57 -9.70312 30.9731C-7.22421 29.2493 -3.33253 28.96 -2.02918 25.3082C-1.76742 24.5841 -1.58067 23.6146 -1.26302 22.6546C1.5754 14.0828 9.29013 6.79516 18.1547 4.44506C18.3688 4.3755 18.5883 4.33731 18.7765 4.30457C25.409 3.05368 33.3943 4.37854 39.968 1.48998C42.3106 0.468482 42.5764 -1.16104 43.299 -3.3224C44.8259 -7.91783 45.2647 -10.9669 48.5194 -14.732C51.8204 -18.6021 56.3882 -21.691 60.1406 -25.3812C62.2608 -27.4949 64.4697 -29.6563 66.9759 -31.2233C71.9937 -34.3258 77.7809 -33.7494 83.4875 -34.193" stroke="black" stroke-width="0.5" stroke-miterlimit="10"/>
<path d="M-85.4204 59.8824C-85.4204 59.8824 -83.9165 57.9405 -80.0605 54.1031C-77.7998 51.868 -76.0437 48.5898 -73.2199 46.806C-71.735 45.8691 -70.0632 45.449 -68.2333 45.1952C-63.8262 44.5254 -59.4504 43.861 -55.833 41.0668C-54.9794 40.4013 -54.1054 39.6676 -53.4728 38.8467C-51.2735 36.0729 -49.3701 32.8984 -46.7521 30.8596C-44.051 28.7417 -40.1688 28.5833 -36.6835 28.5585C-31.7486 28.5077 -26.4673 29.3337 -21.4233 29.9101C-18.4902 30.2399 -14.5316 31.2637 -12.1509 29.7186C-9.42108 27.9512 -5.4271 28.0641 -3.62057 24.5186C-3.25927 23.8095 -2.96206 22.9177 -2.4876 21.9304C1.53173 13.8317 8.9669 6.23727 17.9828 3.82853C18.1969 3.75897 18.4165 3.72078 18.6046 3.68804C25.1853 2.51079 33.1529 4.29109 39.6312 1.22527C41.9888 0.104224 42.155 -1.54029 42.898 -3.76982C44.4822 -8.40754 45.2238 -11.5739 48.4361 -15.3963C51.6799 -19.2241 56.0527 -22.5052 59.591 -26.1258C61.6485 -28.2287 64.0128 -30.611 66.4945 -31.9475C71.5465 -34.6683 77.1372 -34.4778 83.1657 -34.5573" stroke="black" stroke-width="0.5" stroke-miterlimit="10"/>
<path d="M-85.8705 59.1537C-85.8705 59.1537 -84.4347 57.1913 -80.7901 53.0676C-78.7967 50.782 -76.8347 47.7588 -73.9985 46.2314C-72.4918 45.4199 -70.8091 45.0625 -69.0051 44.8456C-64.6075 44.3067 -60.1677 43.825 -56.5871 41.0048C-55.7389 40.308 -54.8649 39.5743 -54.2377 38.722C-52.0398 35.7547 -50.1965 32.2351 -47.5963 29.9086C-44.996 27.5821 -41.3702 27.436 -37.8371 27.4998C-33.205 27.5663 -28.2742 28.4209 -23.5084 28.8842C-20.5807 29.1826 -16.8375 30.0824 -14.3573 28.5522C-11.3766 26.7412 -7.328 27.1677 -5.00193 23.8226C-4.53563 23.1599 -4.10752 22.2776 -3.46533 21.3257C1.62582 13.816 8.62325 5.7485 17.7906 3.28111C17.9733 3.21701 18.1928 3.17881 18.381 3.14607C25.2943 1.65245 32.6784 4.53594 39.353 1.11284C41.7256 -0.107744 41.7868 -1.79861 42.5557 -4.06497C44.1658 -8.7395 45.1733 -12.049 48.3857 -15.8714C51.5408 -19.6515 55.6191 -23.1399 59.0687 -26.7128C61.1208 -28.847 63.5219 -31.2034 66.0404 -32.514C71.1346 -35.1775 76.8345 -35.1029 82.8712 -34.7638" stroke="black" stroke-width="0.5" stroke-miterlimit="10"/>
<path d="M-86.3314 58.3614C-86.3314 58.3614 -85.2121 56.0664 -81.5838 51.8485C-79.6477 49.6053 -77.5997 46.8902 -74.8249 45.5673C-73.2759 44.8132 -71.6191 44.4926 -69.8042 44.3384C-65.4162 43.9304 -60.8809 43.626 -57.3425 40.7485C-56.4631 40.0462 -55.6313 39.2553 -54.9837 38.3348C-52.7871 35.1738 -51.2915 31.327 -48.1322 28.8709C-45.1707 26.5785 -42.134 26.0179 -38.7318 26.0722C-34.5496 26.1523 -29.8151 27.3642 -25.3479 27.7825C-22.3944 28.0441 -18.898 28.8252 -16.3387 27.3783C-13.1384 25.529 -9.04076 26.2378 -6.28924 23.1095C-5.72339 22.4618 -5.15346 21.6518 -4.349 20.704C1.33809 13.8338 8.36276 5.17989 17.4251 2.66614C17.6078 2.60204 17.796 2.5693 18.0155 2.5311C24.9602 1.03202 32.3702 4.62186 39.0066 0.979224C41.3997 -0.309544 41.345 -2.10949 42.1453 -4.3813C43.7812 -9.09265 45.086 -12.5508 48.2356 -16.3623C51.3021 -20.0947 55.0436 -23.8476 58.4837 -27.2896C60.6039 -29.4033 62.9682 -31.7857 65.529 -33.039C70.6709 -35.6138 76.4799 -35.6551 82.5561 -34.9028" stroke="black" stroke-width="0.5" stroke-miterlimit="10"/>
<path d="M-86.8292 57.5431C-86.8292 57.5431 -85.928 54.7368 -82.3612 50.7234C-80.44 48.5797 -78.3798 46.121 -75.6254 44.8663C-74.0655 44.1749 -72.4142 43.8229 -70.5938 43.7001C-66.1894 43.3862 -61.5272 43.2536 -57.9998 40.3134C-57.1258 39.5797 -56.2681 38.7519 -55.6001 37.7633C-53.4158 34.346 -51.8575 30.4882 -48.4159 27.983C-45.4639 25.8215 -42.4763 24.9786 -39.1382 24.8502C-35.2247 24.6863 -30.8188 26.0523 -26.6912 26.562C-23.8835 26.9136 -20.4513 27.512 -17.9123 26.1332C-14.4871 24.2771 -10.3826 25.2109 -7.26289 22.3417C-6.59204 21.7403 -5.83394 20.8975 -4.93539 19.9334C1.06946 13.5895 8.24271 4.48973 17.0323 1.89419C17.215 1.83008 17.4032 1.79735 17.5914 1.76461C24.5674 0.260069 32.1139 4.63397 38.7435 0.766338C41.1201 -0.616518 40.9918 -2.46828 41.8125 -4.80827C43.4485 -9.51962 44.9878 -13.1155 48.0951 -16.9843C51.073 -20.6689 54.4776 -24.6863 57.9027 -28.0288C60.0544 -30.1479 62.4555 -32.5044 65.0217 -33.7264C70.2059 -36.2439 76.1976 -36.3494 82.2398 -35.2357" stroke="black" stroke-width="0.5" stroke-miterlimit="10"/>
<path d="M-87.3379 56.6623C-87.3379 56.6623 -86.8895 53.4823 -83.1644 49.6354C-81.0551 47.4589 -79.2075 45.2634 -76.4681 44.1082C-74.8714 43.4427 -73.2569 43.0648 -71.4365 42.942C-66.9899 42.6853 -62.2377 42.6986 -58.7212 39.6957C-57.8213 38.9252 -56.9064 38.0552 -56.2915 36.9465C-54.2804 33.4624 -52.2721 29.591 -48.7514 27.169C-45.7776 25.1329 -42.5827 23.9955 -39.4178 23.8003C-35.8711 23.5709 -31.6562 24.5824 -27.8053 25.1726C-24.5886 25.6469 -21.4659 26.1376 -19.2978 24.8556C-15.8685 22.8373 -11.3672 23.6374 -8.14792 21.5263C-7.39252 21.0395 -6.55671 20.0863 -5.52726 19.1317C0.684892 13.2364 7.92358 3.76978 16.4404 1.09244C16.6232 1.02833 16.8113 0.99559 16.9627 0.936944C23.9592 -0.635775 31.7266 4.63673 38.4066 0.501827C40.741 -0.938298 40.5909 -2.91551 41.4061 -5.28687C43.0367 -10.0296 44.7791 -13.7578 47.8183 -17.647C50.702 -21.3153 53.8176 -25.5085 57.2168 -28.8142C59.3998 -30.9388 61.8377 -33.2694 64.4407 -34.4654C69.6413 -36.8889 75.8362 -37.1266 81.8552 -35.5889" stroke="black" stroke-width="0.5" stroke-miterlimit="10"/>
<path d="M-87.8466 55.7809C-87.8466 55.7809 -87.5468 52.3037 -83.9254 48.604C-81.8678 46.5012 -80.0612 44.4421 -77.2959 43.2501C-75.7047 42.5532 -74.1011 42.1126 -72.2752 42.0211C-67.8286 41.7645 -62.861 41.9018 -59.3499 38.8676C-58.4241 38.0603 -57.5569 37.1016 -56.9161 35.9561C-54.8955 32.3411 -52.5503 28.7342 -48.9029 26.484C-45.9849 24.6839 -42.5201 23.2409 -39.2925 23.0348C-35.7771 22.8109 -31.974 23.3125 -28.3591 23.8467C-25.3727 24.2965 -22.5473 24.9358 -20.097 23.6048C-16.5204 21.6901 -12.0805 22.6947 -8.70844 20.7186C-7.91622 20.2577 -6.94949 19.314 -5.88868 18.3539C0.457127 12.8555 7.6467 3.1066 15.8117 0.264287C15.9631 0.205641 16.1458 0.14154 16.334 0.1088C23.3973 -1.6371 31.4553 4.74807 38.1434 0.288636C40.4301 -1.24012 40.2949 -3.31687 41.1102 -5.68823C42.7407 -10.4309 44.6236 -14.2805 47.6205 -18.227C50.4047 -21.9103 53.268 -26.2535 56.6413 -29.5223C58.8556 -31.6524 61.3358 -33.9257 63.9389 -35.1218C69.1818 -37.488 75.5907 -37.7952 81.5552 -35.828" stroke="black" stroke-width="0.5" stroke-miterlimit="10"/>
<path d="M-88.3607 54.869C-88.3607 54.869 -88.1878 51.22 -84.7067 47.6417C-82.7324 45.618 -80.9148 43.6216 -78.1659 42.3355C-76.5856 41.5759 -74.9929 41.0726 -73.1725 40.9497C-68.7627 40.6671 -63.6164 40.9027 -60.1422 37.8425C-59.2163 37.0352 -58.3437 36.1079 -57.692 35.0252C-55.5037 31.4456 -52.9431 27.9627 -49.1429 25.8475C-45.9372 24.0296 -42.4232 22.869 -39.077 22.416C-35.8248 21.9794 -32.0967 22.2355 -28.6659 22.6403C-25.8323 22.9551 -23.2783 23.7062 -20.6084 22.337C-17.0209 20.485 -12.5537 21.6465 -9.18572 19.8326C-8.32532 19.3921 -7.32723 18.443 -6.19278 17.5348C-2.24811 14.3928 1.537 10.8908 5.27029 7.46243C8.20321 4.81957 11.2465 0.768098 15.0781 -0.609405C15.2295 -0.66805 15.4122 -0.73215 15.6003 -0.76489C22.7523 -2.55852 31.1049 4.77706 37.8175 0.0871696C40.036 -1.46203 39.9363 -3.70651 40.7461 -6.10923C42.3712 -10.8833 44.3631 -14.8488 47.2864 -18.8471C50.0024 -22.5508 52.5821 -27.0386 55.9608 -30.276C58.1752 -32.4061 60.6922 -34.6535 63.3689 -35.7977C68.6281 -38.0699 75.3138 -38.4576 81.1816 -36.1181" stroke="black" stroke-width="0.5" stroke-miterlimit="10"/>
<path d="M-88.8857 53.8943C-88.8857 53.8943 -88.8287 50.1362 -85.4677 46.6111C-83.5506 44.6296 -81.7644 42.6386 -79.0428 41.1958C-77.4733 40.3734 -75.8398 39.7338 -74.093 39.5591C-69.7991 39.1674 -64.5574 39.5802 -61.019 36.7028C-60.0564 35.9214 -59.1674 35.0882 -58.4475 34.0259C-56.086 30.5131 -53.2431 26.9812 -49.3938 25.1482C-45.9931 23.5226 -42.4219 22.3196 -38.7934 21.8176C-35.604 21.3919 -32.03 21.3194 -28.6946 21.5469C-26.0138 21.7267 -23.6165 22.5051 -20.8894 21.0936C-17.4792 19.3371 -12.8128 20.5285 -9.53213 18.9561C-8.66627 18.5469 -7.6 17.6182 -6.39737 16.7304C-2.33678 13.6975 1.58469 10.2364 5.27571 6.75081C8.02045 4.14069 10.7064 -0.107114 14.3813 -1.45733C14.5326 -1.51598 14.7153 -1.58008 14.9035 -1.61282C22.1073 -3.48009 30.854 4.82089 37.523 -0.119898C39.6733 -1.68955 39.6036 -4.13311 40.4188 -6.50447C42.0385 -11.3099 44.1081 -15.3859 46.9578 -19.4359C49.6002 -23.1915 51.907 -27.7611 55.3226 -30.9726C57.5683 -33.1081 60.1277 -35.2982 62.8412 -36.4166C68.1481 -38.6001 75.0793 -39.0628 80.8557 -36.3197" stroke="black" stroke-width="0.5" stroke-miterlimit="10"/>
<path d="M-89.4108 52.919C-89.4108 52.919 -89.4902 49.12 -86.2287 45.5799C-84.4111 43.5834 -82.6304 41.5611 -79.9102 39.9246C-78.3625 38.9768 -76.7876 38.1858 -75.0668 38.0479C-70.7987 37.6931 -65.5925 38.2736 -61.9219 35.5994C-60.9169 34.8752 -59.9911 34.0679 -59.2289 33.0629C-56.5647 29.4328 -53.5868 26.4913 -49.6816 24.4224C-46.3655 22.6823 -42.2911 21.5856 -38.4785 21.2131C-35.21 20.8706 -31.8105 20.5377 -28.4765 20.5715C-25.8912 20.5741 -23.693 21.3225 -20.9086 19.8687C-17.7125 18.1817 -12.8839 19.3773 -9.73269 17.9889C-8.83001 17.6057 -7.72692 16.7029 -6.48747 15.841C-2.34233 12.9226 1.68959 9.53926 5.2647 5.94456C7.87308 3.29354 10.0723 -0.966502 13.6734 -2.36853C13.8248 -2.42718 14.0075 -2.49128 14.1902 -2.55538C21.4663 -4.56447 30.618 4.76463 37.2175 -0.390234C39.2628 -2.00624 39.2967 -4.59708 40.0806 -6.96298C41.7057 -11.7371 43.8162 -15.9494 46.5609 -20.0458C49.161 -23.8586 51.2061 -28.4473 54.6789 -31.7011C56.9301 -33.8053 59.5521 -36.0063 62.2765 -37.0619C67.6258 -39.1881 74.8133 -39.6632 80.4874 -36.5791" stroke="black" stroke-width="0.5" stroke-miterlimit="10"/>
<path d="M-89.9304 51.9753C-89.9304 51.9753 -90.1148 48.13 -86.9951 44.5176C-85.2457 42.5007 -83.5128 40.3897 -80.8416 38.471C-79.3213 37.3663 -77.8036 36.6176 -76.1455 36.4907C-71.9034 36.1727 -66.7012 36.9155 -62.9296 34.4498C-61.8824 33.7829 -60.883 33.0274 -60.1153 32.0538C-57.2466 28.485 -54.1269 25.6158 -50.1166 23.5933C-46.6123 21.8204 -42.3593 20.8219 -38.3476 20.4794C-35 20.2201 -31.606 19.8558 -28.2216 19.6223C-25.7317 19.4476 -23.6385 20.1497 -20.8392 18.5964C-17.8312 16.9421 -12.8717 18.1472 -9.85547 16.9116C-8.9528 16.5284 -7.80743 15.6828 -6.53662 14.8155C-2.36965 12.0226 1.77273 8.7169 5.1692 5.02404C7.66712 2.2953 9.32224 -1.9347 12.9493 -3.37355C13.1007 -3.43219 13.2834 -3.4963 13.4661 -3.5604C20.7939 -5.64313 30.4803 4.53001 36.8957 -0.754386C38.8728 -2.39084 38.9476 -5.11805 39.7628 -7.4894C41.3879 -12.2635 43.4821 -16.5699 46.1477 -20.7495C48.6632 -24.6768 50.4833 -29.2586 54.0189 -32.5234C56.3014 -34.633 58.9657 -36.7768 61.7269 -37.8065C67.1553 -39.8495 74.5937 -40.3682 80.1397 -36.9064" stroke="black" stroke-width="0.5" stroke-miterlimit="10"/>
<path d="M-90.4445 51.0631C-90.4445 51.0631 -90.7393 47.14 -87.7983 43.4295C-86.1539 41.3662 -84.4183 38.8993 -81.8207 36.9288C-80.3372 35.7982 -78.8769 35.0918 -77.2815 34.9758C-73.0652 34.6946 -67.9094 35.5424 -64.026 33.3481C-62.9365 32.7385 -61.8948 32.0402 -61.059 31.087C-58.0116 27.6164 -54.761 24.7567 -50.6826 22.7547C-47.0214 20.9545 -42.5489 19.9178 -38.3845 19.7103C-34.8896 19.5546 -31.4111 19.3048 -27.9026 18.8559C-25.4713 18.5299 -23.4313 19.112 -20.6428 17.4959C-17.8285 15.843 -12.8854 16.954 -9.90461 15.8861C-8.99102 15.5656 -7.78293 14.7092 -6.50666 13.8732C-2.16243 10.9848 2.57584 7.57547 5.83181 3.26082C7.87975 0.545748 8.89675 -2.89469 12.3043 -4.29534C12.4556 -4.35399 12.6384 -4.41809 12.7897 -4.47673C20.1953 -6.66992 30.6099 4.34587 36.5793 -1.08712C38.3941 -2.72766 38.6094 -5.57623 39.4506 -7.98441C41.107 -12.7639 43.1589 -17.1276 45.714 -21.3849C48.145 -25.4268 49.8028 -30.0127 53.4011 -33.2883C55.715 -35.4034 58.3235 -37.3113 61.2197 -38.4937C66.6725 -40.7672 74.7791 -40.7883 79.8342 -37.1764" stroke="black" stroke-width="0.5" stroke-miterlimit="10"/>
<path d="M-90.99 50.1567C-90.99 50.1567 -91.3271 46.1764 -88.607 42.3104C-86.8972 39.8804 -85.1152 37.3085 -82.8313 35.3925C-81.4473 34.247 -80.0128 33.5773 -78.4174 33.4613C-74.1071 33.1637 -69.1749 34.212 -65.1538 32.2522C-64.022 31.6999 -62.9121 31.0221 -62.034 30.1262C-58.8393 26.7592 -55.4687 23.8463 -51.359 21.8388C-47.5465 19.98 -42.9335 18.8219 -38.6423 18.7862C-34.9633 18.76 -31.2679 18.828 -27.5726 18.1527C-25.1263 17.7271 -23.1395 18.1892 -20.4043 16.4532C-17.7208 14.7908 -12.7886 15.839 -9.92787 14.8243C-9.01428 14.5038 -7.78981 13.7415 -6.51354 12.9055C-2.21022 10.1534 2.51305 6.84365 5.45948 2.42129C7.35469 -0.428767 8.03763 -3.74645 11.5283 -5.2262C11.6797 -5.28485 11.8624 -5.34895 12.0138 -5.4076C19.4398 -7.66896 30.3671 4.06541 36.1007 -1.42348C37.8732 -3.12129 38.1826 -5.98623 39.0128 -8.45713C40.6693 -13.2367 42.6953 -17.5635 45.1235 -21.9926C47.4332 -26.175 49.0283 -30.75 52.6948 -34.0051C55.0455 -36.0943 57.6907 -37.9763 60.6237 -39.1328C66.1871 -41.3286 74.4873 -41.351 79.4402 -37.3983" stroke="black" stroke-width="0.5" stroke-miterlimit="10"/>
<path d="M-91.5042 49.2441C-91.5042 49.2441 -91.9518 45.1861 -89.4007 41.091C-87.8123 38.5205 -86.1517 35.8082 -83.8473 33.824C-82.5261 32.6894 -81.0971 31.9884 -79.5644 31.8833C-75.2541 31.5857 -70.4255 32.7813 -66.3348 31.0356C-65.1608 30.5405 -63.9772 29.9145 -63.0937 29.05C-59.7517 25.7866 -56.2925 22.826 -52.1677 20.719C-48.3089 18.7551 -43.5555 17.4757 -39.1797 17.5545C-35.2907 17.6211 -31.2885 18.1526 -27.3477 17.4023C-24.8128 16.929 -22.8274 17.1975 -20.1344 15.4042C-17.556 13.6954 -12.666 14.6864 -9.868 13.6826C-8.95441 13.3621 -7.7245 12.6311 -6.46868 11.8633C-2.20625 9.24761 2.33977 6.03329 5.01347 1.52913C6.7614 -1.42454 7.27253 -4.6154 10.7523 -6.15788C10.9037 -6.21652 11.0809 -6.31199 11.2378 -6.33927C18.7101 -8.70564 29.5693 3.75145 35.5374 -1.87518C37.7054 -3.90028 38.1074 -7.71838 39.1231 -10.6093C40.59 -14.8065 42.5506 -18.7666 44.5221 -22.6639C46.6381 -26.8448 48.3054 -31.5616 51.9828 -34.7541C54.3704 -36.8174 57.0524 -38.6734 59.9909 -39.7986C65.6279 -41.9426 74.164 -41.9091 79.0037 -37.6782" stroke="black" stroke-width="0.5" stroke-miterlimit="10"/>
<path d="M-92.0183 48.3322C-92.0183 48.3322 -92.5395 44.2224 -90.1999 39.841C-88.7587 37.1668 -87.1567 34.3032 -84.8633 32.2562C-83.5789 31.0957 -82.1758 30.4316 -80.6744 30.3319C-76.3955 30.0398 -71.6392 31.3772 -67.5103 29.851C-66.2626 29.4077 -65.0422 28.8077 -64.1219 27.969C-60.664 24.8147 -57.1584 21.7491 -53.0555 19.5166C-49.0098 17.3264 -44.4555 16.017 -40.0483 16.0904C-36.0653 16.1405 -31.4767 17.4425 -27.2114 16.7004C-24.4829 16.2256 -22.4879 16.3632 -19.8481 14.4499C-17.3487 12.658 -12.5065 13.5603 -9.73442 12.5933C-8.85219 12.2783 -7.65364 11.5528 -6.32963 10.8054C-1.9772 8.33564 2.17611 5.09271 4.56755 0.637663C6.17911 -2.35691 6.65888 -5.54232 10.1332 -7.11615C10.2846 -7.1748 10.4618 -7.27026 10.6186 -7.29755C18.2942 -9.7962 28.9012 3.25407 35.1311 -2.35348C37.3931 -4.39495 37.8156 -8.28124 38.8258 -11.2035C40.2614 -15.3953 42.211 -19.4181 43.9889 -23.314C45.9317 -27.5617 47.7136 -32.3631 51.4278 -35.5296C53.8467 -37.5984 56.6379 -39.5703 59.5464 -40.4964C65.2747 -42.3009 73.7604 -42.7433 78.7556 -37.9901" stroke="black" stroke-width="0.5" stroke-miterlimit="10"/>
<path d="M-92.5325 47.4202C-92.9323 44.194 -92.1252 41.404 -91.01 38.5281C-89.8838 35.7149 -88.1618 32.798 -85.9107 30.6938C-84.6576 29.5388 -83.2599 28.8433 -81.79 28.7491C-77.5479 28.4311 -72.8215 29.9675 -68.7226 28.6404C-67.5009 28.234 -66.1755 27.6803 -65.2183 26.8675C-61.6759 23.8278 -58.1498 20.694 -54.096 18.1792C-49.985 15.6222 -45.5793 14.0156 -41.1503 14.2143C-36.9831 14.3941 -31.9336 16.4882 -27.2742 15.9683C-24.262 15.6381 -22.2371 15.5766 -19.6082 13.6006C-16.4121 11.1704 -13.0629 13.3342 -9.58997 11.5668C-8.72957 11.1263 -7.546 10.5003 -6.21654 9.7843C-1.85319 7.37724 1.77785 4.2898 3.97021 -0.195233C5.47677 -3.23616 6.0138 -6.46384 9.45132 -8.06358C9.60268 -8.12223 9.77994 -8.21769 9.9313 -8.27634C17.8045 -10.9386 28.1907 2.69936 34.6251 -2.84685C36.9553 -4.86787 37.3982 -8.82233 38.4289 -11.8128C39.8386 -15.9678 41.6887 -20.0055 43.3561 -23.9792C45.183 -28.336 47.0276 -33.1483 50.81 -36.2943C53.2657 -38.3372 56.1251 -40.2887 59.039 -41.1834C64.841 -42.9361 73.5571 -43.3539 78.4501 -38.2599" stroke="black" stroke-width="0.5" stroke-miterlimit="10"/>
<path d="M-93.0466 46.5078C-93.5568 43.2039 -92.8562 40.1739 -91.8255 37.1834C-90.8303 34.3607 -89.1982 31.298 -86.9525 29.1624C-85.7363 27.9815 -84.3332 27.3173 -82.9001 27.1972C-78.6579 26.8792 -74.072 28.537 -69.9349 27.4295C-68.7023 27.0857 -67.3401 26.5579 -66.3515 25.7397C-62.6727 22.7409 -59.0799 19.4339 -55.1488 16.5851C-51.0773 13.6149 -46.7576 11.7001 -42.3122 11.9929C-37.9664 12.2708 -32.5963 15.2785 -27.6465 15.1282C-24.2716 15.0257 -22.1117 14.8115 -19.5619 12.7522C-16.3876 10.1966 -13.0125 12.3236 -9.54503 10.5248C-8.68463 10.0843 -7.50106 9.4583 -6.23978 8.72187C-1.97052 6.33118 1.24328 3.44558 3.27882 -1.01217C4.68038 -4.09945 5.30605 -7.37486 8.70675 -9.00051C8.85265 -9.09052 9.03537 -9.15462 9.18673 -9.21327C17.2318 -12.0024 27.412 2.12379 34.051 -3.36107C36.4549 -5.33028 36.9441 -9.38975 37.938 -12.4061C39.3163 -16.5556 41.0355 -20.6029 42.6293 -24.6284C44.403 -29.1052 46.2845 -33.8916 50.1296 -37.0486C52.6221 -39.0655 55.5183 -40.9911 58.469 -41.8599C64.3706 -43.5976 73.2598 -43.9486 78.071 -38.5818" stroke="black" stroke-width="0.5" stroke-miterlimit="10"/>
<path d="M-93.5608 45.5959C-94.1555 42.1774 -93.5871 38.9443 -92.6151 35.8025C-91.7249 32.9334 -90.1719 29.7875 -87.9372 27.5892C-86.7209 26.4082 -85.3546 25.7182 -83.9215 25.5981C-79.7162 25.2541 -75.2025 27.0538 -71.0327 26.1344C-69.7891 25.8534 -68.4269 25.3256 -67.4016 24.5333C-63.5292 21.5331 -59.8968 17.8961 -56.1307 14.656C-52.2188 11.3258 -48.1404 9.32373 -43.466 9.44749C-38.4984 9.58487 -33.5619 13.4435 -28.3188 14.0499C-25.3175 14.4002 -21.8786 13.7372 -19.5837 11.8839C-16.3577 9.2547 -12.8994 11.3026 -9.43738 9.47239C-8.60834 9.03734 -7.43023 8.38 -6.1635 7.67493C-1.99378 5.26925 0.797317 2.55413 2.67605 -1.87633C4.00397 -5.01543 4.69236 -8.30175 8.05625 -9.95331C8.20215 -10.0433 8.38486 -10.1074 8.53622 -10.1661C16.7217 -13.0766 26.722 1.50099 33.5655 -3.92253C38.2492 -7.64548 39.7824 -19.4475 41.9911 -25.3248C43.6912 -29.8534 45.6244 -34.7134 49.5432 -37.8186C52.0671 -39.841 55.0055 -41.7094 57.9931 -42.5523C63.9996 -44.2436 73.0621 -44.5278 77.7914 -38.8883" stroke="black" stroke-width="0.5" stroke-miterlimit="10"/>
<path d="M-94.0749 44.6838C-94.7583 41.3131 -94.4436 37.7363 -93.4252 34.4895C-92.4627 31.4786 -91.1716 28.3136 -88.9422 26.084C-87.7628 24.8771 -86.3597 24.2129 -84.9634 24.0669C-80.7635 23.6917 -76.3276 25.6018 -72.151 24.9074C-70.8965 24.6891 -69.5656 24.1668 -68.5089 23.369C-64.4279 20.2679 -60.8474 15.9614 -57.1454 12.5385C-53.7448 9.42652 -49.7061 6.26814 -44.673 6.78187C-39.1422 7.37056 -34.297 11.6328 -29.3021 12.6702C-26.0526 13.3327 -22.6708 13.4551 -19.8824 11.0959C-16.61 8.36168 -12.9581 10.4082 -9.47018 8.54118C-8.64114 8.10613 -7.52576 7.45971 -6.26448 6.72328C-2.1943 4.30261 0.225902 1.68432 1.95328 -2.6875C3.21302 -5.84704 3.95322 -9.207 7.28574 -10.8531C7.43164 -10.9431 7.61436 -11.0072 7.76572 -11.0659C16.0971 -14.0664 25.9011 0.868461 32.9178 -4.48825C37.7119 -8.13348 39.0556 -20.0964 41.196 -25.9941C42.8539 -30.58 44.813 -35.4769 48.8 -38.5616C51.3607 -40.5581 54.3359 -42.4005 57.329 -43.2121C63.435 -44.8884 72.6393 -45.1004 77.2869 -39.1881" stroke="black" stroke-width="0.5" stroke-miterlimit="10"/>
<path d="M-94.5945 43.7396C-95.357 40.2857 -95.169 36.5371 -94.2407 33.1444C-93.3886 30.0558 -92.1712 26.839 -89.9214 24.5412C-88.7106 23.3288 -87.313 22.6333 -85.948 22.4927C-81.7536 22.0861 -77.3954 24.1067 -73.1805 23.6318C-71.8838 23.4708 -70.5788 22.9853 -69.5221 22.1875C-65.2065 18.9487 -61.7924 14.0572 -58.0878 10.2784C-54.8508 6.96873 -50.898 3.50218 -45.8649 4.0159C-40.1091 4.59776 -35.3403 9.16412 -30.3085 10.9705C-26.9662 12.1662 -23.4126 12.905 -20.3488 10.2717C-16.9986 7.42698 -13.0686 9.58664 -9.50293 7.60918C-8.67934 7.14277 -7.58988 6.53316 -6.39678 5.77628C-2.42615 3.34062 -0.356381 0.750994 1.29328 -3.51037C2.5162 -6.69582 3.2564 -10.0558 6.58346 -11.7332C6.72936 -11.8233 6.91208 -11.8874 7.06344 -11.946C15.5298 -15.0992 25.1538 0.286951 32.3382 -5.03432C37.2578 -8.70138 38.3602 -20.7516 40.5006 -26.6493C42.153 -31.2666 44.138 -36.2002 48.1931 -39.2645C50.7907 -41.2351 53.8341 -43.0571 56.8326 -43.8372C63.0437 -45.4672 72.3843 -45.6383 76.9446 -39.4847" stroke="black" stroke-width="0.5" stroke-miterlimit="10"/>
<path d="M-95.14 42.8335C-95.9871 39.265 -95.9151 35.4074 -95.0767 31.8688C-94.3351 28.7024 -93.1654 25.397 -90.8897 23.0623C-89.6844 21.8187 -88.2554 21.1177 -86.8904 20.9771C-82.6701 20.5336 -78.3582 22.6592 -74.1734 22.3835C-72.8657 22.2852 -71.5812 21.8678 -70.4617 21.0591C-65.943 17.688 -62.6912 12.0493 -59.0357 7.98825C-55.9774 4.5804 -52.105 0.837045 -47.046 1.31395C-41.1703 1.84262 -36.3523 6.69124 -31.4105 9.09492C-28.1963 10.6683 -24.3959 12.2689 -21.0921 9.52919C-17.5906 6.62584 -13.3455 8.92457 -9.60803 6.82028C-8.78445 6.35387 -7.73179 5.71836 -6.57005 4.96693C-2.79305 2.53264 -0.896473 -0.123782 0.680924 -4.24333C1.90385 -7.42878 2.60723 -10.8146 5.92884 -12.5235C6.07473 -12.6135 6.25745 -12.6776 6.40881 -12.7362C14.9897 -15.974 24.4378 -0.298727 31.7641 -5.54773C36.8255 -9.14253 37.7069 -21.3482 39.816 -27.2404C41.4683 -31.8577 43.4739 -36.8595 47.5972 -39.9034C50.2315 -41.848 53.2136 -43.4655 56.3471 -44.3984C62.7081 -46.2806 72.3775 -45.8627 76.6132 -39.7172" stroke="black" stroke-width="0.5" stroke-miterlimit="10"/>
<path d="M-95.665 41.858C-96.5966 38.175 -96.6037 34.2342 -95.8867 30.5551C-95.2556 27.3111 -94.1022 23.9115 -91.8006 21.5401C-90.5694 20.2596 -89.1349 19.5899 -87.7441 19.4126C-83.4665 18.9268 -79.2065 21.126 -75.0202 21.0439C-73.733 21.0138 -72.4008 20.6851 -71.2718 19.7455C-66.6985 15.9448 -63.7004 9.96251 -59.9113 5.5551C-56.9007 2.05862 -53.2124 -1.81426 -48.1384 -1.4369C-42.1795 -0.98733 -37.2879 3.9131 -32.5355 6.89905C-29.56 8.77243 -25.3559 11.2075 -21.9525 8.48282C-18.3256 5.55765 -13.7014 8.17816 -9.82349 5.95249C-8.99991 5.48609 -7.98408 4.82467 -6.84825 4.11006C-0.326456 -0.191183 -1.23393 -10.0499 5.25793 -13.4089C5.40383 -13.499 5.58654 -13.5631 5.7379 -13.6217C14.4538 -17.0122 23.6415 -1.16238 31.1627 -6.21913C36.2514 -9.65712 37.0578 -22.1082 39.1042 -27.9895C40.7143 -32.6641 42.7879 -37.6455 47.0108 -40.6743C49.682 -42.5931 52.7377 -44.1587 55.8766 -45.0603C62.3686 -46.9329 72.117 -46.4318 76.26 -40.0764" stroke="black" stroke-width="0.5" stroke-miterlimit="10"/>
<path d="M-96.1847 40.915C-97.2485 37.0288 -97.182 33.1398 -96.6914 29.274C-96.2648 25.9686 -95.0023 22.4531 -92.6748 20.0448C-91.4436 18.7643 -89.9778 18.0893 -88.5665 17.8437C-84.2385 17.0907 -79.9934 19.3894 -75.7799 19.4641C-74.4817 19.4968 -73.1182 19.1626 -72.026 18.1971C-67.4596 14.1714 -64.6006 7.76095 -60.7869 3.12308C-57.8813 -0.419754 -54.2871 -4.27627 -49.235 -4.02435C-43.2351 -3.71114 -38.2699 1.2411 -33.688 4.54751C-30.842 6.60498 -26.4482 9.94413 -22.8403 7.28077C-19.092 4.49604 -14.2033 7.52289 -10.1277 5.13358C-9.30409 4.66717 -8.31961 4.01121 -7.2206 3.27069C-0.903351 -1.0919 -1.80537 -10.9193 4.62376 -14.2674C4.76966 -14.3574 4.95237 -14.4215 5.10373 -14.4801C13.9451 -17.8925 22.9241 -1.94173 30.5722 -6.82667C35.6882 -10.1079 36.4564 -22.7785 38.44 -28.6489C40.0392 -33.3862 42.1756 -38.3784 46.4462 -41.3187C49.1855 -43.217 52.2467 -44.7512 55.4225 -45.6269C62.0453 -47.49 71.8619 -46.9685 75.9546 -40.3458" stroke="black" stroke-width="0.5" stroke-miterlimit="10"/>
<path d="M-96.7042 39.9706C-97.8472 36.0012 -97.902 31.9718 -97.4905 28.0228C-97.143 24.6342 -95.9283 21.0301 -93.5122 18.5741C-92.2237 17.2513 -90.7947 16.5504 -89.3684 16.2053C-84.9954 15.1536 -80.7135 17.4783 -76.5041 17.7152C-75.2005 17.7792 -73.8001 17.471 -72.7133 16.4741C-68.1428 12.2862 -65.4379 5.54706 -61.6147 0.778285C-58.7773 -2.785 -55.3181 -6.48878 -50.2878 -6.36231C-44.2525 -6.21683 -39.3459 -1.41594 -34.8826 2.13729C-32.1035 4.36794 -27.6047 8.49661 -23.8127 5.96278C-19.8748 3.33894 -14.9765 6.97804 -10.609 4.40872C-9.78547 3.94231 -8.801 3.28635 -7.77017 2.52539C-1.65746 -1.89856 -2.43403 -11.7478 3.93238 -15.085C4.07828 -15.175 4.261 -15.2391 4.41235 -15.2977C13.3369 -18.7891 22.1332 -2.77429 29.8768 -7.48197C34.9941 -10.5695 35.7446 -23.5279 37.7023 -29.3615C39.296 -34.1301 41.5006 -39.1019 45.8394 -42.0217C48.6155 -43.8941 51.719 -45.3711 54.9316 -46.2209C61.7222 -48.0486 71.5388 -47.527 75.5387 -40.6943" stroke="black" stroke-width="0.5" stroke-miterlimit="10"/>
<path d="M-97.2239 39.0269C-98.4459 34.9744 -98.7749 30.6696 -98.321 26.7778C-97.9108 23.3783 -96.9784 19.8234 -94.3809 17.1096C-93.1238 15.7923 -91.628 14.9181 -90.1867 14.4735C-85.7946 13.16 -81.435 15.3742 -77.2242 15.8048C-75.9097 15.9315 -74.5147 15.5919 -73.4021 14.5582C-68.848 10.2762 -66.2754 3.33393 -62.4631 -1.49756C-59.6516 -5.02403 -56.2946 -8.3869 -51.297 -8.44861C-45.2318 -8.50222 -40.4589 -4.09812 -36.0937 -0.366254C-33.3241 1.99531 -28.7475 6.75667 -24.781 4.48328C-20.5226 2.02986 -15.9324 6.49806 -11.1846 3.70098C-10.3664 3.20321 -9.40786 2.58407 -8.40839 1.82857C-2.26978 -2.6322 -3.08863 -12.5387 3.27778 -15.8759C3.42368 -15.9659 3.6064 -16.03 3.75775 -16.0886C12.745 -19.591 21.405 -3.617 29.2181 -8.11061C34.3 -11.0304 35.1118 -24.1933 37.0068 -30.016C38.5896 -34.8474 40.8624 -39.7987 45.2748 -42.6667C48.0877 -44.5132 51.2335 -45.9329 54.4774 -46.7881C61.3989 -48.6063 71.221 -48.0534 75.1909 -41.0216" stroke="black" stroke-width="0.5" stroke-miterlimit="10"/>
<path d="M-97.7489 38.0525C-99.9229 31.1283 -100.5 21.309 -95.2182 15.6402C-88.383 8.3117 -79.6294 17.5808 -74.039 12.5692C-66.8629 6.08617 -64.4463 -9.55312 -52.2667 -10.1212C-46.2396 -10.3944 -41.8799 -6.69387 -37.5625 -3.05063C-34.5351 -0.507733 -29.9326 4.95998 -25.7969 2.91566C-23.1789 1.62005 -21.5397 3.24126 -19.0089 3.67334C-14.9167 4.35077 -12.5754 3.8788 -9.12977 1.21136C-3.22707 -3.3053 -3.72275 -13.3973 2.59731 -16.6294C11.6186 -21.2363 20.4736 -4.32693 28.4858 -8.79055C32.7291 -11.1444 33.0067 -19.9492 34.3032 -24.5692C36.2076 -31.2659 38.4611 -39.6713 44.6788 -43.3057C52.7415 -48.0366 68.8562 -52.359 74.7859 -41.3061" stroke="black" stroke-width="0.5" stroke-miterlimit="10"/>
</g>
<defs>
<clipPath id="clip0_1_1517">
<rect width="198.864" height="112.882" fill="white" transform="translate(-108 -15.9131) rotate(-9.86981)"/>
</clipPath>
</defs>
</svg>
